<mxfile host="app.diagrams.net" modified="2023-10-05T17:06:15.359Z" agent="Mozilla/5.0 (Windows NT 10.0; Win64; x64) AppleWebKit/537.36 (KHTML, like Gecko) Chrome/114.0.0.0 YaBrowser/23.7.5.739 Yowser/2.5 Safari/537.36" etag="H-6XSz-PvhXzyZk855RY" version="22.0.2" type="google" pages="3">
  <diagram name="Страница — 1" id="fM1aEv2xEtqpSCk1YmEJ">
    <mxGraphModel grid="1" page="1" gridSize="10" guides="1" tooltips="1" connect="1" arrows="1" fold="1" pageScale="1" pageWidth="827" pageHeight="1169" math="0" shadow="0">
      <root>
        <mxCell id="0" />
        <mxCell id="1" parent="0" />
        <mxCell id="9f39xW1bp53NkmA5WLCv-1" style="edgeStyle=none;rounded=1;orthogonalLoop=1;jettySize=auto;html=1;exitX=0.5;exitY=0.5;exitDx=0;exitDy=0;exitPerimeter=0;entryX=1;entryY=1;entryDx=0;entryDy=0;labelBackgroundColor=none;fontColor=default;" edge="1" parent="1" source="9f39xW1bp53NkmA5WLCv-10" target="9f39xW1bp53NkmA5WLCv-18">
          <mxGeometry relative="1" as="geometry" />
        </mxCell>
        <mxCell id="9f39xW1bp53NkmA5WLCv-2" style="edgeStyle=none;rounded=1;orthogonalLoop=1;jettySize=auto;html=1;exitX=0.5;exitY=0.5;exitDx=0;exitDy=0;exitPerimeter=0;entryX=0;entryY=1;entryDx=0;entryDy=0;labelBackgroundColor=none;fontColor=default;" edge="1" parent="1" source="9f39xW1bp53NkmA5WLCv-10" target="9f39xW1bp53NkmA5WLCv-39">
          <mxGeometry relative="1" as="geometry" />
        </mxCell>
        <mxCell id="9f39xW1bp53NkmA5WLCv-3" style="edgeStyle=none;rounded=1;orthogonalLoop=1;jettySize=auto;html=1;exitX=0.5;exitY=0.5;exitDx=0;exitDy=0;exitPerimeter=0;entryX=0;entryY=0.5;entryDx=0;entryDy=0;labelBackgroundColor=none;fontColor=default;" edge="1" parent="1" source="9f39xW1bp53NkmA5WLCv-10" target="9f39xW1bp53NkmA5WLCv-15">
          <mxGeometry relative="1" as="geometry" />
        </mxCell>
        <mxCell id="9f39xW1bp53NkmA5WLCv-4" style="edgeStyle=none;rounded=1;orthogonalLoop=1;jettySize=auto;html=1;exitX=0.5;exitY=0.5;exitDx=0;exitDy=0;exitPerimeter=0;entryX=0;entryY=0;entryDx=0;entryDy=0;labelBackgroundColor=none;fontColor=default;" edge="1" parent="1" source="9f39xW1bp53NkmA5WLCv-10" target="9f39xW1bp53NkmA5WLCv-40">
          <mxGeometry relative="1" as="geometry" />
        </mxCell>
        <mxCell id="9f39xW1bp53NkmA5WLCv-5" style="edgeStyle=none;rounded=1;orthogonalLoop=1;jettySize=auto;html=1;exitX=0.5;exitY=0.5;exitDx=0;exitDy=0;exitPerimeter=0;entryX=0.5;entryY=0;entryDx=0;entryDy=0;labelBackgroundColor=none;fontColor=default;" edge="1" parent="1" source="9f39xW1bp53NkmA5WLCv-10" target="9f39xW1bp53NkmA5WLCv-38">
          <mxGeometry relative="1" as="geometry" />
        </mxCell>
        <mxCell id="9f39xW1bp53NkmA5WLCv-6" style="edgeStyle=none;rounded=1;orthogonalLoop=1;jettySize=auto;html=1;exitX=0.5;exitY=0.5;exitDx=0;exitDy=0;exitPerimeter=0;entryX=1;entryY=0;entryDx=0;entryDy=0;labelBackgroundColor=none;fontColor=default;" edge="1" parent="1" source="9f39xW1bp53NkmA5WLCv-10" target="9f39xW1bp53NkmA5WLCv-34">
          <mxGeometry relative="1" as="geometry" />
        </mxCell>
        <mxCell id="9f39xW1bp53NkmA5WLCv-8" style="edgeStyle=none;rounded=1;orthogonalLoop=1;jettySize=auto;html=1;exitX=0.5;exitY=0.5;exitDx=0;exitDy=0;exitPerimeter=0;entryX=1;entryY=0.5;entryDx=0;entryDy=0;labelBackgroundColor=none;fontColor=default;" edge="1" parent="1" source="9f39xW1bp53NkmA5WLCv-10" target="9f39xW1bp53NkmA5WLCv-63">
          <mxGeometry relative="1" as="geometry" />
        </mxCell>
        <mxCell id="9f39xW1bp53NkmA5WLCv-9" style="edgeStyle=none;rounded=1;orthogonalLoop=1;jettySize=auto;html=1;exitX=0.5;exitY=0.5;exitDx=0;exitDy=0;exitPerimeter=0;entryX=0;entryY=0.5;entryDx=0;entryDy=0;labelBackgroundColor=none;fontColor=default;" edge="1" parent="1" source="9f39xW1bp53NkmA5WLCv-10" target="9f39xW1bp53NkmA5WLCv-37">
          <mxGeometry relative="1" as="geometry" />
        </mxCell>
        <mxCell id="9f39xW1bp53NkmA5WLCv-10" value="Пользователь" style="shape=umlActor;verticalLabelPosition=bottom;verticalAlign=top;html=1;strokeWidth=3;labelBackgroundColor=none;rounded=1;" vertex="1" parent="1">
          <mxGeometry x="870" y="350" width="30" height="60" as="geometry" />
        </mxCell>
        <mxCell id="9f39xW1bp53NkmA5WLCv-11" style="edgeStyle=none;rounded=1;orthogonalLoop=1;jettySize=auto;html=1;exitX=0.5;exitY=0;exitDx=0;exitDy=0;entryX=0;entryY=1;entryDx=0;entryDy=0;labelBackgroundColor=none;fontColor=default;dashed=1;" edge="1" parent="1" source="9f39xW1bp53NkmA5WLCv-15" target="9f39xW1bp53NkmA5WLCv-41">
          <mxGeometry relative="1" as="geometry" />
        </mxCell>
        <mxCell id="9f39xW1bp53NkmA5WLCv-12" style="edgeStyle=none;rounded=1;orthogonalLoop=1;jettySize=auto;html=1;exitX=0;exitY=0.5;exitDx=0;exitDy=0;entryX=1;entryY=0;entryDx=0;entryDy=0;labelBackgroundColor=none;fontColor=default;dashed=1;" edge="1" parent="1" source="9f39xW1bp53NkmA5WLCv-42" target="9f39xW1bp53NkmA5WLCv-15">
          <mxGeometry relative="1" as="geometry" />
        </mxCell>
        <mxCell id="9f39xW1bp53NkmA5WLCv-14" style="edgeStyle=none;rounded=1;orthogonalLoop=1;jettySize=auto;html=1;exitX=0.685;exitY=0.959;exitDx=0;exitDy=0;entryX=0.5;entryY=0;entryDx=0;entryDy=0;labelBackgroundColor=none;fontColor=default;dashed=1;exitPerimeter=0;" edge="1" parent="1" source="9f39xW1bp53NkmA5WLCv-15" target="9f39xW1bp53NkmA5WLCv-37">
          <mxGeometry relative="1" as="geometry" />
        </mxCell>
        <mxCell id="9f39xW1bp53NkmA5WLCv-15" value="Создать файл" style="ellipse;whiteSpace=wrap;html=1;labelBackgroundColor=none;rounded=1;" vertex="1" parent="1">
          <mxGeometry x="1050" y="300" width="110" height="70" as="geometry" />
        </mxCell>
        <mxCell id="9f39xW1bp53NkmA5WLCv-16" style="rounded=1;orthogonalLoop=1;jettySize=auto;html=1;exitX=0;exitY=1;exitDx=0;exitDy=0;entryX=1;entryY=0;entryDx=0;entryDy=0;labelBackgroundColor=none;fontColor=default;dashed=1;" edge="1" parent="1" source="9f39xW1bp53NkmA5WLCv-20" target="9f39xW1bp53NkmA5WLCv-18">
          <mxGeometry relative="1" as="geometry" />
        </mxCell>
        <mxCell id="9f39xW1bp53NkmA5WLCv-17" style="edgeStyle=none;rounded=1;orthogonalLoop=1;jettySize=auto;html=1;exitX=0;exitY=0;exitDx=0;exitDy=0;entryX=1;entryY=0.5;entryDx=0;entryDy=0;labelBackgroundColor=none;fontColor=default;dashed=1;" edge="1" parent="1" source="9f39xW1bp53NkmA5WLCv-18" target="9f39xW1bp53NkmA5WLCv-21">
          <mxGeometry relative="1" as="geometry" />
        </mxCell>
        <mxCell id="9f39xW1bp53NkmA5WLCv-18" value="Выбрать фигуру в библиотеке граф.редактора" style="ellipse;whiteSpace=wrap;html=1;labelBackgroundColor=none;rounded=1;" vertex="1" parent="1">
          <mxGeometry x="710" y="240" width="125" height="70" as="geometry" />
        </mxCell>
        <mxCell id="9f39xW1bp53NkmA5WLCv-19" value="Выбрать простую фигуру" style="ellipse;whiteSpace=wrap;html=1;labelBackgroundColor=none;rounded=1;" vertex="1" parent="1">
          <mxGeometry x="700" y="140" width="120" height="70" as="geometry" />
        </mxCell>
        <mxCell id="9f39xW1bp53NkmA5WLCv-20" value="Выбрать сложный элемент" style="ellipse;whiteSpace=wrap;html=1;labelBackgroundColor=none;rounded=1;" vertex="1" parent="1">
          <mxGeometry x="850" y="180" width="120" height="70" as="geometry" />
        </mxCell>
        <mxCell id="9f39xW1bp53NkmA5WLCv-21" value="Выбрать точку начала рисования (левый верхний угол)&amp;nbsp;" style="ellipse;whiteSpace=wrap;html=1;labelBackgroundColor=none;rounded=1;" vertex="1" parent="1">
          <mxGeometry x="570" y="200" width="120" height="70" as="geometry" />
        </mxCell>
        <mxCell id="9f39xW1bp53NkmA5WLCv-22" style="edgeStyle=none;rounded=1;orthogonalLoop=1;jettySize=auto;html=1;exitX=1;exitY=1;exitDx=0;exitDy=0;entryX=0;entryY=0;entryDx=0;entryDy=0;labelBackgroundColor=none;fontColor=default;dashed=1;" edge="1" parent="1" source="9f39xW1bp53NkmA5WLCv-46" target="9f39xW1bp53NkmA5WLCv-26">
          <mxGeometry relative="1" as="geometry" />
        </mxCell>
        <mxCell id="9f39xW1bp53NkmA5WLCv-23" style="edgeStyle=none;rounded=1;orthogonalLoop=1;jettySize=auto;html=1;exitX=1;exitY=0.5;exitDx=0;exitDy=0;entryX=0;entryY=0.5;entryDx=0;entryDy=0;labelBackgroundColor=none;fontColor=default;dashed=1;" edge="1" parent="1" source="9f39xW1bp53NkmA5WLCv-49" target="9f39xW1bp53NkmA5WLCv-26">
          <mxGeometry relative="1" as="geometry" />
        </mxCell>
        <mxCell id="9f39xW1bp53NkmA5WLCv-24" style="edgeStyle=none;rounded=1;orthogonalLoop=1;jettySize=auto;html=1;exitX=1;exitY=0.5;exitDx=0;exitDy=0;entryX=0;entryY=1;entryDx=0;entryDy=0;labelBackgroundColor=none;fontColor=default;dashed=1;" edge="1" parent="1" source="9f39xW1bp53NkmA5WLCv-52" target="9f39xW1bp53NkmA5WLCv-26">
          <mxGeometry relative="1" as="geometry" />
        </mxCell>
        <mxCell id="9f39xW1bp53NkmA5WLCv-26" value="Изменить фигуру" style="ellipse;whiteSpace=wrap;html=1;labelBackgroundColor=none;rounded=1;" vertex="1" parent="1">
          <mxGeometry x="450" y="290" width="140" height="70" as="geometry" />
        </mxCell>
        <mxCell id="9f39xW1bp53NkmA5WLCv-31" style="edgeStyle=none;rounded=1;orthogonalLoop=1;jettySize=auto;html=1;exitX=1;exitY=0;exitDx=0;exitDy=0;entryX=0;entryY=1;entryDx=0;entryDy=0;labelBackgroundColor=none;fontColor=default;dashed=1;" edge="1" parent="1" source="9f39xW1bp53NkmA5WLCv-54" target="9f39xW1bp53NkmA5WLCv-34">
          <mxGeometry relative="1" as="geometry" />
        </mxCell>
        <mxCell id="9f39xW1bp53NkmA5WLCv-32" style="edgeStyle=none;rounded=1;orthogonalLoop=1;jettySize=auto;html=1;exitX=1;exitY=0;exitDx=0;exitDy=0;entryX=0.5;entryY=1;entryDx=0;entryDy=0;labelBackgroundColor=none;fontColor=default;dashed=1;" edge="1" parent="1" source="9f39xW1bp53NkmA5WLCv-55" target="9f39xW1bp53NkmA5WLCv-34">
          <mxGeometry relative="1" as="geometry" />
        </mxCell>
        <mxCell id="9f39xW1bp53NkmA5WLCv-33" style="edgeStyle=none;rounded=1;orthogonalLoop=1;jettySize=auto;html=1;exitX=0.5;exitY=0;exitDx=0;exitDy=0;entryX=1;entryY=1;entryDx=0;entryDy=0;labelBackgroundColor=none;fontColor=default;dashed=1;" edge="1" parent="1" source="9f39xW1bp53NkmA5WLCv-58" target="9f39xW1bp53NkmA5WLCv-34">
          <mxGeometry relative="1" as="geometry" />
        </mxCell>
        <mxCell id="9f39xW1bp53NkmA5WLCv-34" value="Изменить положение фигуры" style="ellipse;whiteSpace=wrap;html=1;labelBackgroundColor=none;rounded=1;" vertex="1" parent="1">
          <mxGeometry x="500" y="490" width="140" height="70" as="geometry" />
        </mxCell>
        <mxCell id="9f39xW1bp53NkmA5WLCv-35" style="edgeStyle=none;rounded=1;orthogonalLoop=1;jettySize=auto;html=1;exitX=0;exitY=0.5;exitDx=0;exitDy=0;entryX=1;entryY=0.5;entryDx=0;entryDy=0;labelBackgroundColor=none;fontColor=default;dashed=1;" edge="1" parent="1" source="9f39xW1bp53NkmA5WLCv-44" target="9f39xW1bp53NkmA5WLCv-37">
          <mxGeometry relative="1" as="geometry" />
        </mxCell>
        <mxCell id="9f39xW1bp53NkmA5WLCv-36" style="edgeStyle=none;rounded=1;orthogonalLoop=1;jettySize=auto;html=1;exitX=0;exitY=0;exitDx=0;exitDy=0;entryX=1;entryY=1;entryDx=0;entryDy=0;labelBackgroundColor=none;fontColor=default;dashed=1;" edge="1" parent="1" source="9f39xW1bp53NkmA5WLCv-64" target="9f39xW1bp53NkmA5WLCv-37">
          <mxGeometry relative="1" as="geometry" />
        </mxCell>
        <mxCell id="9f39xW1bp53NkmA5WLCv-37" value="Сохранить файл" style="ellipse;whiteSpace=wrap;html=1;labelBackgroundColor=none;rounded=1;" vertex="1" parent="1">
          <mxGeometry x="1090" y="410" width="120" height="70" as="geometry" />
        </mxCell>
        <mxCell id="9f39xW1bp53NkmA5WLCv-38" value="Свернуть файл" style="ellipse;whiteSpace=wrap;html=1;labelBackgroundColor=none;rounded=1;" vertex="1" parent="1">
          <mxGeometry x="730" y="480" width="120" height="70" as="geometry" />
        </mxCell>
        <mxCell id="9f39xW1bp53NkmA5WLCv-39" value="Открыть файл" style="ellipse;whiteSpace=wrap;html=1;labelBackgroundColor=none;rounded=1;" vertex="1" parent="1">
          <mxGeometry x="930" y="250" width="110" height="70" as="geometry" />
        </mxCell>
        <mxCell id="9f39xW1bp53NkmA5WLCv-40" value="Закрыть файл" style="ellipse;whiteSpace=wrap;html=1;labelBackgroundColor=none;rounded=1;" vertex="1" parent="1">
          <mxGeometry x="890" y="530" width="120" height="70" as="geometry" />
        </mxCell>
        <mxCell id="9f39xW1bp53NkmA5WLCv-41" value="Выбрать библиотеку файла" style="ellipse;whiteSpace=wrap;html=1;labelBackgroundColor=none;rounded=1;" vertex="1" parent="1">
          <mxGeometry x="1097" y="190" width="120" height="70" as="geometry" />
        </mxCell>
        <mxCell id="9f39xW1bp53NkmA5WLCv-42" value="Выбрать &quot;открыть в новом окне&quot;" style="ellipse;whiteSpace=wrap;html=1;labelBackgroundColor=none;rounded=1;" vertex="1" parent="1">
          <mxGeometry x="1210" y="250" width="120" height="70" as="geometry" />
        </mxCell>
        <mxCell id="9f39xW1bp53NkmA5WLCv-44" value="Сохранить изменения в файле записи" style="ellipse;whiteSpace=wrap;html=1;labelBackgroundColor=none;rounded=1;" vertex="1" parent="1">
          <mxGeometry x="1260" y="420" width="120" height="70" as="geometry" />
        </mxCell>
        <mxCell id="9f39xW1bp53NkmA5WLCv-45" style="rounded=1;orthogonalLoop=1;jettySize=auto;html=1;exitX=0.589;exitY=1.027;exitDx=0;exitDy=0;entryX=0.5;entryY=0;entryDx=0;entryDy=0;labelBackgroundColor=none;fontColor=default;dashed=1;exitPerimeter=0;" edge="1" parent="1" source="9f39xW1bp53NkmA5WLCv-19" target="9f39xW1bp53NkmA5WLCv-18">
          <mxGeometry relative="1" as="geometry" />
        </mxCell>
        <mxCell id="9f39xW1bp53NkmA5WLCv-46" value="Изменить толщину линий" style="ellipse;whiteSpace=wrap;html=1;labelBackgroundColor=none;rounded=1;" vertex="1" parent="1">
          <mxGeometry x="330" y="160" width="120" height="70" as="geometry" />
        </mxCell>
        <mxCell id="9f39xW1bp53NkmA5WLCv-47" style="edgeStyle=none;rounded=1;orthogonalLoop=1;jettySize=auto;html=1;exitX=1;exitY=0.5;exitDx=0;exitDy=0;entryX=0;entryY=0.5;entryDx=0;entryDy=0;labelBackgroundColor=none;fontColor=default;dashed=1;" edge="1" parent="1" source="9f39xW1bp53NkmA5WLCv-50" target="9f39xW1bp53NkmA5WLCv-49">
          <mxGeometry relative="1" as="geometry" />
        </mxCell>
        <mxCell id="9f39xW1bp53NkmA5WLCv-48" style="edgeStyle=none;rounded=1;orthogonalLoop=1;jettySize=auto;html=1;exitX=1;exitY=0.5;exitDx=0;exitDy=0;entryX=0;entryY=1;entryDx=0;entryDy=0;labelBackgroundColor=none;fontColor=default;dashed=1;" edge="1" parent="1" source="9f39xW1bp53NkmA5WLCv-51" target="9f39xW1bp53NkmA5WLCv-49">
          <mxGeometry relative="1" as="geometry" />
        </mxCell>
        <mxCell id="9f39xW1bp53NkmA5WLCv-49" value="Добавить/Изменить заливку фигуры" style="ellipse;whiteSpace=wrap;html=1;labelBackgroundColor=none;rounded=1;" vertex="1" parent="1">
          <mxGeometry x="240" y="250" width="140" height="70" as="geometry" />
        </mxCell>
        <mxCell id="9f39xW1bp53NkmA5WLCv-50" value="Добавить/Изменить заливку цветом" style="ellipse;whiteSpace=wrap;html=1;labelBackgroundColor=none;rounded=1;" vertex="1" parent="1">
          <mxGeometry x="30" y="230" width="120" height="70" as="geometry" />
        </mxCell>
        <mxCell id="9f39xW1bp53NkmA5WLCv-51" value="Добавить/Изменить заливку градиентом" style="ellipse;whiteSpace=wrap;html=1;labelBackgroundColor=none;rounded=1;" vertex="1" parent="1">
          <mxGeometry x="80" y="320" width="120" height="70" as="geometry" />
        </mxCell>
        <mxCell id="9f39xW1bp53NkmA5WLCv-52" value="Добавить/Изменить рамку фигуры" style="ellipse;whiteSpace=wrap;html=1;labelBackgroundColor=none;rounded=1;" vertex="1" parent="1">
          <mxGeometry x="290" y="360" width="120" height="70" as="geometry" />
        </mxCell>
        <mxCell id="9f39xW1bp53NkmA5WLCv-54" value="Изменить размер фигуры" style="ellipse;whiteSpace=wrap;html=1;labelBackgroundColor=none;rounded=1;" vertex="1" parent="1">
          <mxGeometry x="340" y="570" width="120" height="70" as="geometry" />
        </mxCell>
        <mxCell id="9f39xW1bp53NkmA5WLCv-55" value="Изменить расположение" style="ellipse;whiteSpace=wrap;html=1;labelBackgroundColor=none;rounded=1;" vertex="1" parent="1">
          <mxGeometry x="420" y="650" width="120" height="70" as="geometry" />
        </mxCell>
        <mxCell id="9f39xW1bp53NkmA5WLCv-56" style="edgeStyle=none;rounded=1;orthogonalLoop=1;jettySize=auto;html=1;exitX=1;exitY=0;exitDx=0;exitDy=0;entryX=0;entryY=1;entryDx=0;entryDy=0;labelBackgroundColor=none;fontColor=default;dashed=1;" edge="1" parent="1" source="9f39xW1bp53NkmA5WLCv-59" target="9f39xW1bp53NkmA5WLCv-58">
          <mxGeometry relative="1" as="geometry" />
        </mxCell>
        <mxCell id="9f39xW1bp53NkmA5WLCv-57" style="edgeStyle=none;rounded=1;orthogonalLoop=1;jettySize=auto;html=1;exitX=0;exitY=0;exitDx=0;exitDy=0;entryX=1;entryY=1;entryDx=0;entryDy=0;labelBackgroundColor=none;fontColor=default;dashed=1;" edge="1" parent="1" source="9f39xW1bp53NkmA5WLCv-60" target="9f39xW1bp53NkmA5WLCv-58">
          <mxGeometry relative="1" as="geometry" />
        </mxCell>
        <mxCell id="9f39xW1bp53NkmA5WLCv-58" value="Повернуть" style="ellipse;whiteSpace=wrap;html=1;labelBackgroundColor=none;rounded=1;" vertex="1" parent="1">
          <mxGeometry x="570" y="650" width="140" height="70" as="geometry" />
        </mxCell>
        <mxCell id="9f39xW1bp53NkmA5WLCv-59" value="Повернуть фигуру относительно центра фигуры" style="ellipse;whiteSpace=wrap;html=1;labelBackgroundColor=none;rounded=1;" vertex="1" parent="1">
          <mxGeometry x="460" y="750" width="120" height="70" as="geometry" />
        </mxCell>
        <mxCell id="9f39xW1bp53NkmA5WLCv-60" value="Повернуть фигуру относительно точки вне фигуры" style="ellipse;whiteSpace=wrap;html=1;labelBackgroundColor=none;rounded=1;" vertex="1" parent="1">
          <mxGeometry x="700" y="750" width="120" height="70" as="geometry" />
        </mxCell>
        <mxCell id="9f39xW1bp53NkmA5WLCv-61" style="edgeStyle=none;rounded=1;orthogonalLoop=1;jettySize=auto;html=1;exitX=1;exitY=1;exitDx=0;exitDy=0;entryX=0;entryY=0;entryDx=0;entryDy=0;labelBackgroundColor=none;fontColor=default;dashed=1;" edge="1" parent="1" source="9f39xW1bp53NkmA5WLCv-26" target="9f39xW1bp53NkmA5WLCv-63">
          <mxGeometry relative="1" as="geometry" />
        </mxCell>
        <mxCell id="9f39xW1bp53NkmA5WLCv-62" style="edgeStyle=none;rounded=1;orthogonalLoop=1;jettySize=auto;html=1;exitX=0.5;exitY=0;exitDx=0;exitDy=0;entryX=0;entryY=1;entryDx=0;entryDy=0;labelBackgroundColor=none;fontColor=default;dashed=1;" edge="1" parent="1" source="9f39xW1bp53NkmA5WLCv-34" target="9f39xW1bp53NkmA5WLCv-63">
          <mxGeometry relative="1" as="geometry" />
        </mxCell>
        <mxCell id="9f39xW1bp53NkmA5WLCv-63" value="Выбрать фигуру/группу фигур/элемент" style="ellipse;whiteSpace=wrap;html=1;labelBackgroundColor=none;rounded=1;shadow=0;" vertex="1" parent="1">
          <mxGeometry x="590" y="380" width="120" height="70" as="geometry" />
        </mxCell>
        <mxCell id="9f39xW1bp53NkmA5WLCv-64" value="Выбрать формат сохранения" style="ellipse;whiteSpace=wrap;html=1;labelBackgroundColor=none;rounded=1;" vertex="1" parent="1">
          <mxGeometry x="1210" y="500" width="120" height="70" as="geometry" />
        </mxCell>
        <mxCell id="Hx16RrW1Fbq0Yhb_uobG-1" value="Удалить заливку" style="ellipse;whiteSpace=wrap;html=1;labelBackgroundColor=none;rounded=1;" vertex="1" parent="1">
          <mxGeometry x="100" y="150" width="120" height="70" as="geometry" />
        </mxCell>
        <mxCell id="Hx16RrW1Fbq0Yhb_uobG-2" style="edgeStyle=none;rounded=1;orthogonalLoop=1;jettySize=auto;html=1;exitX=1;exitY=1;exitDx=0;exitDy=0;entryX=0;entryY=0;entryDx=0;entryDy=0;labelBackgroundColor=none;fontColor=default;dashed=1;" edge="1" parent="1" source="Hx16RrW1Fbq0Yhb_uobG-1" target="9f39xW1bp53NkmA5WLCv-49">
          <mxGeometry relative="1" as="geometry">
            <mxPoint x="220" y="225" as="sourcePoint" />
            <mxPoint x="271" y="270" as="targetPoint" />
          </mxGeometry>
        </mxCell>
        <mxCell id="Hx16RrW1Fbq0Yhb_uobG-3" value="Скопировать существующий файл" style="ellipse;whiteSpace=wrap;html=1;labelBackgroundColor=none;rounded=1;" vertex="1" parent="1">
          <mxGeometry x="1210" y="340" width="120" height="70" as="geometry" />
        </mxCell>
        <mxCell id="Hx16RrW1Fbq0Yhb_uobG-4" style="edgeStyle=none;rounded=1;orthogonalLoop=1;jettySize=auto;html=1;exitX=0;exitY=0.5;exitDx=0;exitDy=0;entryX=0.958;entryY=0.712;entryDx=0;entryDy=0;labelBackgroundColor=none;fontColor=default;dashed=1;entryPerimeter=0;" edge="1" parent="1" source="Hx16RrW1Fbq0Yhb_uobG-3" target="9f39xW1bp53NkmA5WLCv-15">
          <mxGeometry relative="1" as="geometry">
            <mxPoint x="1210" y="295" as="sourcePoint" />
            <mxPoint x="1154" y="320" as="targetPoint" />
          </mxGeometry>
        </mxCell>
        <mxCell id="Hx16RrW1Fbq0Yhb_uobG-5" value="Удалить файл" style="ellipse;whiteSpace=wrap;html=1;labelBackgroundColor=none;rounded=1;" vertex="1" parent="1">
          <mxGeometry x="1000" y="470" width="120" height="70" as="geometry" />
        </mxCell>
        <mxCell id="Hx16RrW1Fbq0Yhb_uobG-7" style="edgeStyle=none;rounded=1;orthogonalLoop=1;jettySize=auto;html=1;exitX=0.5;exitY=0.5;exitDx=0;exitDy=0;exitPerimeter=0;entryX=0;entryY=0;entryDx=0;entryDy=0;labelBackgroundColor=none;fontColor=default;" edge="1" parent="1" source="9f39xW1bp53NkmA5WLCv-10" target="Hx16RrW1Fbq0Yhb_uobG-5">
          <mxGeometry relative="1" as="geometry">
            <mxPoint x="895" y="390" as="sourcePoint" />
            <mxPoint x="917" y="550" as="targetPoint" />
          </mxGeometry>
        </mxCell>
        <mxCell id="Hx16RrW1Fbq0Yhb_uobG-10" value="&amp;lt;include&amp;gt;" style="text;html=1;align=center;verticalAlign=middle;resizable=0;points=[];autosize=1;strokeColor=none;fillColor=none;" vertex="1" parent="1">
          <mxGeometry x="644" y="260" width="80" height="30" as="geometry" />
        </mxCell>
        <mxCell id="Hx16RrW1Fbq0Yhb_uobG-11" value="&amp;lt;extend&amp;gt;" style="text;html=1;align=center;verticalAlign=middle;resizable=0;points=[];autosize=1;strokeColor=none;fillColor=none;" vertex="1" parent="1">
          <mxGeometry x="765" y="200" width="70" height="30" as="geometry" />
        </mxCell>
        <mxCell id="Hx16RrW1Fbq0Yhb_uobG-12" value="&amp;lt;extend&amp;gt;" style="text;html=1;align=center;verticalAlign=middle;resizable=0;points=[];autosize=1;strokeColor=none;fillColor=none;" vertex="1" parent="1">
          <mxGeometry x="830" y="240" width="70" height="30" as="geometry" />
        </mxCell>
        <mxCell id="Hx16RrW1Fbq0Yhb_uobG-13" value="&amp;lt;include&amp;gt;" style="text;html=1;align=center;verticalAlign=middle;resizable=0;points=[];autosize=1;strokeColor=none;fillColor=none;" vertex="1" parent="1">
          <mxGeometry x="1070" y="270" width="80" height="30" as="geometry" />
        </mxCell>
        <mxCell id="Hx16RrW1Fbq0Yhb_uobG-14" value="&amp;lt;include&amp;gt;" style="text;html=1;align=center;verticalAlign=middle;resizable=0;points=[];autosize=1;strokeColor=none;fillColor=none;" vertex="1" parent="1">
          <mxGeometry x="1050" y="380" width="80" height="30" as="geometry" />
        </mxCell>
        <mxCell id="Hx16RrW1Fbq0Yhb_uobG-15" value="&amp;lt;extend&amp;gt;" style="text;html=1;align=center;verticalAlign=middle;resizable=0;points=[];autosize=1;strokeColor=none;fillColor=none;" vertex="1" parent="1">
          <mxGeometry x="1150" y="270" width="70" height="30" as="geometry" />
        </mxCell>
        <mxCell id="Hx16RrW1Fbq0Yhb_uobG-16" value="&amp;lt;extend&amp;gt;" style="text;html=1;align=center;verticalAlign=middle;resizable=0;points=[];autosize=1;strokeColor=none;fillColor=none;" vertex="1" parent="1">
          <mxGeometry x="1170" y="340" width="70" height="30" as="geometry" />
        </mxCell>
        <mxCell id="Hx16RrW1Fbq0Yhb_uobG-17" value="&amp;lt;extend&amp;gt;" style="text;html=1;align=center;verticalAlign=middle;resizable=0;points=[];autosize=1;strokeColor=none;fillColor=none;" vertex="1" parent="1">
          <mxGeometry x="1210" y="450" width="70" height="30" as="geometry" />
        </mxCell>
        <mxCell id="Hx16RrW1Fbq0Yhb_uobG-18" value="&amp;lt;extend&amp;gt;" style="text;html=1;align=center;verticalAlign=middle;resizable=0;points=[];autosize=1;strokeColor=none;fillColor=none;" vertex="1" parent="1">
          <mxGeometry x="1160" y="480" width="70" height="30" as="geometry" />
        </mxCell>
        <mxCell id="Hx16RrW1Fbq0Yhb_uobG-19" value="&amp;lt;extend&amp;gt;" style="text;html=1;align=center;verticalAlign=middle;resizable=0;points=[];autosize=1;strokeColor=none;fillColor=none;" vertex="1" parent="1">
          <mxGeometry x="450" y="230" width="70" height="30" as="geometry" />
        </mxCell>
        <mxCell id="Hx16RrW1Fbq0Yhb_uobG-20" value="&amp;lt;extend&amp;gt;" style="text;html=1;align=center;verticalAlign=middle;resizable=0;points=[];autosize=1;strokeColor=none;fillColor=none;" vertex="1" parent="1">
          <mxGeometry x="380" y="270" width="70" height="30" as="geometry" />
        </mxCell>
        <mxCell id="Hx16RrW1Fbq0Yhb_uobG-21" value="&amp;lt;extend&amp;gt;" style="text;html=1;align=center;verticalAlign=middle;resizable=0;points=[];autosize=1;strokeColor=none;fillColor=none;" vertex="1" parent="1">
          <mxGeometry x="430" y="380" width="70" height="30" as="geometry" />
        </mxCell>
        <mxCell id="Hx16RrW1Fbq0Yhb_uobG-22" value="&amp;lt;extend&amp;gt;" style="text;html=1;align=center;verticalAlign=middle;resizable=0;points=[];autosize=1;strokeColor=none;fillColor=none;" vertex="1" parent="1">
          <mxGeometry x="460" y="550" width="70" height="30" as="geometry" />
        </mxCell>
        <mxCell id="Hx16RrW1Fbq0Yhb_uobG-23" value="&amp;lt;extend&amp;gt;" style="text;html=1;align=center;verticalAlign=middle;resizable=0;points=[];autosize=1;strokeColor=none;fillColor=none;" vertex="1" parent="1">
          <mxGeometry x="510" y="610" width="70" height="30" as="geometry" />
        </mxCell>
        <mxCell id="Hx16RrW1Fbq0Yhb_uobG-24" value="&amp;lt;extend&amp;gt;" style="text;html=1;align=center;verticalAlign=middle;resizable=0;points=[];autosize=1;strokeColor=none;fillColor=none;" vertex="1" parent="1">
          <mxGeometry x="610" y="610" width="70" height="30" as="geometry" />
        </mxCell>
        <mxCell id="Hx16RrW1Fbq0Yhb_uobG-25" value="&amp;lt;extend&amp;gt;" style="text;html=1;align=center;verticalAlign=middle;resizable=0;points=[];autosize=1;strokeColor=none;fillColor=none;" vertex="1" parent="1">
          <mxGeometry x="560" y="460" width="70" height="30" as="geometry" />
        </mxCell>
        <mxCell id="Hx16RrW1Fbq0Yhb_uobG-26" value="&amp;lt;extend&amp;gt;" style="text;html=1;align=center;verticalAlign=middle;resizable=0;points=[];autosize=1;strokeColor=none;fillColor=none;" vertex="1" parent="1">
          <mxGeometry x="560" y="740" width="70" height="30" as="geometry" />
        </mxCell>
        <mxCell id="Hx16RrW1Fbq0Yhb_uobG-27" value="&amp;lt;extend&amp;gt;" style="text;html=1;align=center;verticalAlign=middle;resizable=0;points=[];autosize=1;strokeColor=none;fillColor=none;" vertex="1" parent="1">
          <mxGeometry x="710" y="720" width="70" height="30" as="geometry" />
        </mxCell>
        <mxCell id="Hx16RrW1Fbq0Yhb_uobG-28" value="&amp;lt;extend&amp;gt;" style="text;html=1;align=center;verticalAlign=middle;resizable=0;points=[];autosize=1;strokeColor=none;fillColor=none;" vertex="1" parent="1">
          <mxGeometry x="210" y="330" width="70" height="30" as="geometry" />
        </mxCell>
        <mxCell id="Hx16RrW1Fbq0Yhb_uobG-29" value="&amp;lt;extend&amp;gt;" style="text;html=1;align=center;verticalAlign=middle;resizable=0;points=[];autosize=1;strokeColor=none;fillColor=none;" vertex="1" parent="1">
          <mxGeometry x="170" y="290" width="70" height="30" as="geometry" />
        </mxCell>
        <mxCell id="Hx16RrW1Fbq0Yhb_uobG-30" value="&amp;lt;extend&amp;gt;" style="text;html=1;align=center;verticalAlign=middle;resizable=0;points=[];autosize=1;strokeColor=none;fillColor=none;" vertex="1" parent="1">
          <mxGeometry x="230" y="210" width="70" height="30" as="geometry" />
        </mxCell>
      </root>
    </mxGraphModel>
  </diagram>
  <diagram id="MyREpu5k7Wu7-fN8ogu4" name="Страница — 2">
    <mxGraphModel grid="1" page="1" gridSize="10" guides="1" tooltips="1" connect="1" arrows="1" fold="1" pageScale="1" pageWidth="827" pageHeight="1169" math="0" shadow="0">
      <root>
        <mxCell id="0" />
        <mxCell id="1" parent="0" />
        <mxCell id="e-jiAwe50fOZGzjYshJZ-120" value="Предоставление выбора&lt;br&gt;фигуры" style="html=1;align=left;spacingLeft=2;endArrow=block;rounded=0;edgeStyle=orthogonalEdgeStyle;curved=0;rounded=0;" edge="1" parent="1">
          <mxGeometry relative="1" as="geometry">
            <mxPoint x="1500" y="294.0000000000001" as="sourcePoint" />
            <Array as="points">
              <mxPoint x="1530" y="324" />
            </Array>
            <mxPoint x="1505" y="324.0588235294117" as="targetPoint" />
          </mxGeometry>
        </mxCell>
        <mxCell id="e-jiAwe50fOZGzjYshJZ-118" value="" style="edgeStyle=none;rounded=0;orthogonalLoop=1;jettySize=auto;html=1;endArrow=none;endFill=0;dashed=1;" edge="1" parent="1">
          <mxGeometry relative="1" as="geometry">
            <mxPoint x="199.47" y="578" as="targetPoint" />
            <mxPoint x="199.47" y="680" as="sourcePoint" />
          </mxGeometry>
        </mxCell>
        <mxCell id="e-jiAwe50fOZGzjYshJZ-23" style="edgeStyle=none;rounded=0;orthogonalLoop=1;jettySize=auto;html=1;curved=0;" edge="1" parent="1">
          <mxGeometry relative="1" as="geometry">
            <mxPoint x="200" y="392" as="sourcePoint" />
            <mxPoint x="345" y="392" as="targetPoint" />
          </mxGeometry>
        </mxCell>
        <mxCell id="e-jiAwe50fOZGzjYshJZ-24" value="Запуск граф.редактора" style="text;html=1;align=center;verticalAlign=middle;resizable=0;points=[];autosize=1;strokeColor=none;fillColor=none;" vertex="1" parent="1">
          <mxGeometry x="205" y="360" width="150" height="30" as="geometry" />
        </mxCell>
        <mxCell id="e-jiAwe50fOZGzjYshJZ-91" value="" style="edgeStyle=none;rounded=0;orthogonalLoop=1;jettySize=auto;html=1;exitX=0.5;exitY=1;exitDx=0;exitDy=0;dashed=1;endArrow=none;endFill=0;" edge="1" parent="1">
          <mxGeometry relative="1" as="geometry">
            <mxPoint x="1499.52" y="560" as="targetPoint" />
            <mxPoint x="1499.52" y="220" as="sourcePoint" />
          </mxGeometry>
        </mxCell>
        <mxCell id="e-jiAwe50fOZGzjYshJZ-90" value="" style="edgeStyle=none;rounded=0;orthogonalLoop=1;jettySize=auto;html=1;exitX=0.5;exitY=1;exitDx=0;exitDy=0;dashed=1;endArrow=none;endFill=0;" edge="1" parent="1">
          <mxGeometry relative="1" as="geometry">
            <mxPoint x="1339.52" y="560" as="targetPoint" />
            <mxPoint x="1339.52" y="220" as="sourcePoint" />
          </mxGeometry>
        </mxCell>
        <mxCell id="e-jiAwe50fOZGzjYshJZ-89" value="" style="edgeStyle=none;rounded=0;orthogonalLoop=1;jettySize=auto;html=1;exitX=0.5;exitY=1;exitDx=0;exitDy=0;dashed=1;endArrow=none;endFill=0;" edge="1" parent="1">
          <mxGeometry relative="1" as="geometry">
            <mxPoint x="1179.52" y="560" as="targetPoint" />
            <mxPoint x="1179.52" y="220" as="sourcePoint" />
          </mxGeometry>
        </mxCell>
        <mxCell id="e-jiAwe50fOZGzjYshJZ-2" value="Пользователь" style="shape=umlActor;verticalLabelPosition=bottom;verticalAlign=top;html=1;" vertex="1" parent="1">
          <mxGeometry x="60" y="160" width="30" height="60" as="geometry" />
        </mxCell>
        <mxCell id="e-jiAwe50fOZGzjYshJZ-3" value="загрузка и запуск&lt;br&gt;граф.библиотеки" style="html=1;align=left;spacingLeft=2;endArrow=block;rounded=0;edgeStyle=orthogonalEdgeStyle;curved=0;rounded=0;" edge="1" parent="1">
          <mxGeometry relative="1" as="geometry">
            <mxPoint x="375" y="410" as="sourcePoint" />
            <Array as="points">
              <mxPoint x="405" y="439.99999999999994" />
            </Array>
            <mxPoint x="380" y="440.05882352941165" as="targetPoint" />
          </mxGeometry>
        </mxCell>
        <mxCell id="e-jiAwe50fOZGzjYshJZ-5" value=":File" style="rounded=0;whiteSpace=wrap;html=1;" vertex="1" parent="1">
          <mxGeometry x="140" y="190" width="120" height="30" as="geometry" />
        </mxCell>
        <mxCell id="e-jiAwe50fOZGzjYshJZ-6" value=":Graphic Code&amp;nbsp;" style="rounded=0;whiteSpace=wrap;html=1;" vertex="1" parent="1">
          <mxGeometry x="300" y="190" width="120" height="30" as="geometry" />
        </mxCell>
        <mxCell id="e-jiAwe50fOZGzjYshJZ-12" value="" style="edgeStyle=none;rounded=0;orthogonalLoop=1;jettySize=auto;html=1;exitX=0.5;exitY=0.5;exitDx=0;exitDy=0;exitPerimeter=0;endArrow=none;endFill=0;dashed=1;" edge="1" parent="1" source="e-jiAwe50fOZGzjYshJZ-2" target="e-jiAwe50fOZGzjYshJZ-41">
          <mxGeometry relative="1" as="geometry">
            <mxPoint x="76" y="780" as="targetPoint" />
            <mxPoint x="75" y="190" as="sourcePoint" />
          </mxGeometry>
        </mxCell>
        <mxCell id="e-jiAwe50fOZGzjYshJZ-13" style="edgeStyle=none;rounded=0;orthogonalLoop=1;jettySize=auto;html=1;curved=0;" edge="1" parent="1">
          <mxGeometry relative="1" as="geometry">
            <mxPoint x="85" y="320" as="sourcePoint" />
            <mxPoint x="190" y="320" as="targetPoint" />
          </mxGeometry>
        </mxCell>
        <mxCell id="e-jiAwe50fOZGzjYshJZ-14" value="" style="edgeStyle=none;rounded=0;orthogonalLoop=1;jettySize=auto;html=1;exitX=0.5;exitY=1;exitDx=0;exitDy=0;dashed=1;endArrow=none;endFill=0;" edge="1" parent="1" source="e-jiAwe50fOZGzjYshJZ-5" target="e-jiAwe50fOZGzjYshJZ-15">
          <mxGeometry relative="1" as="geometry">
            <mxPoint x="200" y="780" as="targetPoint" />
            <mxPoint x="200" y="220" as="sourcePoint" />
          </mxGeometry>
        </mxCell>
        <mxCell id="e-jiAwe50fOZGzjYshJZ-15" value="" style="html=1;points=[[0,0,0,0,5],[0,1,0,0,-5],[1,0,0,0,5],[1,1,0,0,-5]];perimeter=orthogonalPerimeter;outlineConnect=0;targetShapes=umlLifeline;portConstraint=eastwest;newEdgeStyle={&quot;curved&quot;:0,&quot;rounded&quot;:0};" vertex="1" parent="1">
          <mxGeometry x="180" y="260" width="30" height="140" as="geometry" />
        </mxCell>
        <mxCell id="e-jiAwe50fOZGzjYshJZ-16" value="создать файл" style="text;html=1;align=center;verticalAlign=middle;resizable=0;points=[];autosize=1;strokeColor=none;fillColor=none;" vertex="1" parent="1">
          <mxGeometry x="80" y="246" width="100" height="30" as="geometry" />
        </mxCell>
        <mxCell id="e-jiAwe50fOZGzjYshJZ-17" value="открыть файл" style="text;html=1;align=center;verticalAlign=middle;resizable=0;points=[];autosize=1;strokeColor=none;fillColor=none;" vertex="1" parent="1">
          <mxGeometry x="90" y="360" width="100" height="30" as="geometry" />
        </mxCell>
        <mxCell id="e-jiAwe50fOZGzjYshJZ-18" style="edgeStyle=none;rounded=0;orthogonalLoop=1;jettySize=auto;html=1;curved=0;" edge="1" parent="1">
          <mxGeometry relative="1" as="geometry">
            <mxPoint x="70" y="270" as="sourcePoint" />
            <mxPoint x="175" y="270" as="targetPoint" />
          </mxGeometry>
        </mxCell>
        <mxCell id="e-jiAwe50fOZGzjYshJZ-19" value="" style="edgeStyle=none;rounded=0;orthogonalLoop=1;jettySize=auto;html=1;exitX=0.5;exitY=1;exitDx=0;exitDy=0;dashed=1;endArrow=none;endFill=0;" edge="1" parent="1" source="e-jiAwe50fOZGzjYshJZ-6" target="e-jiAwe50fOZGzjYshJZ-20">
          <mxGeometry relative="1" as="geometry">
            <mxPoint x="360" y="780" as="targetPoint" />
            <mxPoint x="360" y="220" as="sourcePoint" />
          </mxGeometry>
        </mxCell>
        <mxCell id="e-jiAwe50fOZGzjYshJZ-21" style="edgeStyle=none;rounded=0;orthogonalLoop=1;jettySize=auto;html=1;curved=0;" edge="1" parent="1">
          <mxGeometry relative="1" as="geometry">
            <mxPoint x="72" y="390" as="sourcePoint" />
            <mxPoint x="177" y="390" as="targetPoint" />
          </mxGeometry>
        </mxCell>
        <mxCell id="e-jiAwe50fOZGzjYshJZ-22" value="&lt;font style=&quot;font-size: 11px;&quot;&gt;выбрать&lt;br&gt;граф.библиотеку&lt;/font&gt;" style="text;html=1;align=center;verticalAlign=middle;resizable=0;points=[];autosize=1;strokeColor=none;fillColor=none;" vertex="1" parent="1">
          <mxGeometry x="78" y="300" width="110" height="40" as="geometry" />
        </mxCell>
        <mxCell id="e-jiAwe50fOZGzjYshJZ-25" value="" style="edgeStyle=none;rounded=0;orthogonalLoop=1;jettySize=auto;html=1;exitX=0.5;exitY=1;exitDx=0;exitDy=0;dashed=1;endArrow=none;endFill=0;" edge="1" parent="1">
          <mxGeometry relative="1" as="geometry">
            <mxPoint x="359.47" y="685" as="targetPoint" />
            <mxPoint x="359.47" y="445" as="sourcePoint" />
          </mxGeometry>
        </mxCell>
        <mxCell id="e-jiAwe50fOZGzjYshJZ-39" value="" style="edgeStyle=none;rounded=0;orthogonalLoop=1;jettySize=auto;html=1;exitX=0.5;exitY=0.5;exitDx=0;exitDy=0;exitPerimeter=0;endArrow=none;endFill=0;dashed=1;" edge="1" parent="1" source="e-jiAwe50fOZGzjYshJZ-41">
          <mxGeometry relative="1" as="geometry">
            <mxPoint x="75" y="455" as="targetPoint" />
            <mxPoint x="75" y="345" as="sourcePoint" />
          </mxGeometry>
        </mxCell>
        <mxCell id="e-jiAwe50fOZGzjYshJZ-59" value="" style="edgeStyle=none;rounded=0;orthogonalLoop=1;jettySize=auto;html=1;endArrow=none;endFill=0;dashed=1;" edge="1" parent="1">
          <mxGeometry relative="1" as="geometry">
            <mxPoint x="75" y="578" as="targetPoint" />
            <mxPoint x="75" y="680" as="sourcePoint" />
          </mxGeometry>
        </mxCell>
        <mxCell id="e-jiAwe50fOZGzjYshJZ-61" value="" style="edgeStyle=none;rounded=0;orthogonalLoop=1;jettySize=auto;html=1;exitX=0.5;exitY=1;exitDx=0;exitDy=0;dashed=1;endArrow=none;endFill=0;" edge="1" parent="1" source="e-jiAwe50fOZGzjYshJZ-15" target="e-jiAwe50fOZGzjYshJZ-62">
          <mxGeometry relative="1" as="geometry">
            <mxPoint x="200" y="1060" as="targetPoint" />
            <mxPoint x="200" y="400" as="sourcePoint" />
          </mxGeometry>
        </mxCell>
        <mxCell id="e-jiAwe50fOZGzjYshJZ-62" value="" style="html=1;points=[[0,0,0,0,5],[0,1,0,0,-5],[1,0,0,0,5],[1,1,0,0,-5]];perimeter=orthogonalPerimeter;outlineConnect=0;targetShapes=umlLifeline;portConstraint=eastwest;newEdgeStyle={&quot;curved&quot;:0,&quot;rounded&quot;:0};" vertex="1" parent="1">
          <mxGeometry x="180" y="495" width="30" height="90" as="geometry" />
        </mxCell>
        <mxCell id="e-jiAwe50fOZGzjYshJZ-63" style="edgeStyle=none;rounded=0;orthogonalLoop=1;jettySize=auto;html=1;curved=0;" edge="1" parent="1">
          <mxGeometry relative="1" as="geometry">
            <mxPoint x="76" y="508" as="sourcePoint" />
            <mxPoint x="181" y="508" as="targetPoint" />
          </mxGeometry>
        </mxCell>
        <mxCell id="e-jiAwe50fOZGzjYshJZ-64" value="Сохранить &lt;br&gt;Файл" style="text;html=1;align=center;verticalAlign=middle;resizable=0;points=[];autosize=1;strokeColor=none;fillColor=none;" vertex="1" parent="1">
          <mxGeometry x="90" y="489" width="80" height="40" as="geometry" />
        </mxCell>
        <mxCell id="e-jiAwe50fOZGzjYshJZ-65" value="Запись изменений" style="html=1;align=left;spacingLeft=2;endArrow=block;rounded=0;edgeStyle=orthogonalEdgeStyle;curved=0;rounded=0;" edge="1" parent="1">
          <mxGeometry x="0.0588" y="40" relative="1" as="geometry">
            <mxPoint x="210" y="524.97" as="sourcePoint" />
            <Array as="points">
              <mxPoint x="240" y="554.97" />
            </Array>
            <mxPoint x="215" y="555.0288235294117" as="targetPoint" />
            <mxPoint as="offset" />
          </mxGeometry>
        </mxCell>
        <mxCell id="e-jiAwe50fOZGzjYshJZ-66" style="edgeStyle=none;rounded=0;orthogonalLoop=1;jettySize=auto;html=1;curved=0;" edge="1" parent="1">
          <mxGeometry relative="1" as="geometry">
            <mxPoint x="77" y="568" as="sourcePoint" />
            <mxPoint x="182" y="568" as="targetPoint" />
          </mxGeometry>
        </mxCell>
        <mxCell id="e-jiAwe50fOZGzjYshJZ-67" value="Закрыть &lt;br&gt;файл" style="text;html=1;align=center;verticalAlign=middle;resizable=0;points=[];autosize=1;strokeColor=none;fillColor=none;" vertex="1" parent="1">
          <mxGeometry x="98" y="547" width="70" height="40" as="geometry" />
        </mxCell>
        <mxCell id="e-jiAwe50fOZGzjYshJZ-68" value="Пользователь" style="shape=umlActor;verticalLabelPosition=bottom;verticalAlign=top;html=1;" vertex="1" parent="1">
          <mxGeometry x="880" y="160" width="30" height="60" as="geometry" />
        </mxCell>
        <mxCell id="e-jiAwe50fOZGzjYshJZ-69" value=":File" style="rounded=0;whiteSpace=wrap;html=1;" vertex="1" parent="1">
          <mxGeometry x="960" y="190" width="120" height="30" as="geometry" />
        </mxCell>
        <mxCell id="e-jiAwe50fOZGzjYshJZ-70" value=":Graphic Code&amp;nbsp;" style="rounded=0;whiteSpace=wrap;html=1;" vertex="1" parent="1">
          <mxGeometry x="1120" y="190" width="120" height="30" as="geometry" />
        </mxCell>
        <mxCell id="e-jiAwe50fOZGzjYshJZ-71" value=":Display field" style="rounded=0;whiteSpace=wrap;html=1;" vertex="1" parent="1">
          <mxGeometry x="1280" y="190" width="120" height="30" as="geometry" />
        </mxCell>
        <mxCell id="e-jiAwe50fOZGzjYshJZ-72" value=":Object" style="rounded=0;whiteSpace=wrap;html=1;" vertex="1" parent="1">
          <mxGeometry x="1440" y="190" width="120" height="30" as="geometry" />
        </mxCell>
        <mxCell id="e-jiAwe50fOZGzjYshJZ-73" value="" style="edgeStyle=none;rounded=0;orthogonalLoop=1;jettySize=auto;html=1;exitX=0.5;exitY=0.5;exitDx=0;exitDy=0;exitPerimeter=0;endArrow=none;endFill=0;dashed=1;" edge="1" parent="1" source="e-jiAwe50fOZGzjYshJZ-68">
          <mxGeometry relative="1" as="geometry">
            <mxPoint x="895" y="250" as="targetPoint" />
            <mxPoint x="895" y="190" as="sourcePoint" />
          </mxGeometry>
        </mxCell>
        <mxCell id="e-jiAwe50fOZGzjYshJZ-74" value="" style="edgeStyle=none;rounded=0;orthogonalLoop=1;jettySize=auto;html=1;exitX=0.5;exitY=1;exitDx=0;exitDy=0;dashed=1;endArrow=none;endFill=0;" edge="1" parent="1" source="e-jiAwe50fOZGzjYshJZ-69">
          <mxGeometry relative="1" as="geometry">
            <mxPoint x="1020" y="560" as="targetPoint" />
            <mxPoint x="1020" y="220" as="sourcePoint" />
          </mxGeometry>
        </mxCell>
        <mxCell id="e-jiAwe50fOZGzjYshJZ-75" value="" style="html=1;points=[[0,0,0,0,5],[0,1,0,0,-5],[1,0,0,0,5],[1,1,0,0,-5]];perimeter=orthogonalPerimeter;outlineConnect=0;targetShapes=umlLifeline;portConstraint=eastwest;newEdgeStyle={&quot;curved&quot;:0,&quot;rounded&quot;:0};" vertex="1" parent="1">
          <mxGeometry x="1495" y="275" width="10" height="200" as="geometry" />
        </mxCell>
        <mxCell id="e-jiAwe50fOZGzjYshJZ-76" style="edgeStyle=none;rounded=0;orthogonalLoop=1;jettySize=auto;html=1;curved=0;" edge="1" parent="1">
          <mxGeometry relative="1" as="geometry">
            <mxPoint x="905" y="285" as="sourcePoint" />
            <mxPoint x="1490" y="285" as="targetPoint" />
          </mxGeometry>
        </mxCell>
        <mxCell id="e-jiAwe50fOZGzjYshJZ-77" value="Выбрать фигуру" style="text;html=1;align=center;verticalAlign=middle;resizable=0;points=[];autosize=1;strokeColor=none;fillColor=none;" vertex="1" parent="1">
          <mxGeometry x="905" y="260" width="110" height="30" as="geometry" />
        </mxCell>
        <mxCell id="e-jiAwe50fOZGzjYshJZ-78" value="" style="edgeStyle=none;rounded=0;orthogonalLoop=1;jettySize=auto;html=1;exitX=0.5;exitY=1;exitDx=0;exitDy=0;dashed=1;endArrow=none;endFill=0;" edge="1" parent="1" target="e-jiAwe50fOZGzjYshJZ-80">
          <mxGeometry relative="1" as="geometry">
            <mxPoint x="1180" y="595" as="targetPoint" />
            <mxPoint x="1180" y="275" as="sourcePoint" />
          </mxGeometry>
        </mxCell>
        <mxCell id="e-jiAwe50fOZGzjYshJZ-79" style="edgeStyle=none;rounded=0;orthogonalLoop=1;jettySize=auto;html=1;curved=0;exitX=1;exitY=1;exitDx=0;exitDy=-5;exitPerimeter=0;" edge="1" parent="1" source="e-jiAwe50fOZGzjYshJZ-80" target="e-jiAwe50fOZGzjYshJZ-81">
          <mxGeometry relative="1" as="geometry" />
        </mxCell>
        <mxCell id="e-jiAwe50fOZGzjYshJZ-80" value="" style="html=1;points=[[0,0,0,0,5],[0,1,0,0,-5],[1,0,0,0,5],[1,1,0,0,-5]];perimeter=orthogonalPerimeter;outlineConnect=0;targetShapes=umlLifeline;portConstraint=eastwest;newEdgeStyle={&quot;curved&quot;:0,&quot;rounded&quot;:0};" vertex="1" parent="1">
          <mxGeometry x="1175" y="320" width="10" height="189" as="geometry" />
        </mxCell>
        <mxCell id="e-jiAwe50fOZGzjYshJZ-81" value="" style="html=1;points=[[0,0,0,0,5],[0,1,0,0,-5],[1,0,0,0,5],[1,1,0,0,-5]];perimeter=orthogonalPerimeter;outlineConnect=0;targetShapes=umlLifeline;portConstraint=eastwest;newEdgeStyle={&quot;curved&quot;:0,&quot;rounded&quot;:0};" vertex="1" parent="1">
          <mxGeometry x="1335" y="440" width="10" height="109" as="geometry" />
        </mxCell>
        <mxCell id="e-jiAwe50fOZGzjYshJZ-82" style="edgeStyle=none;rounded=0;orthogonalLoop=1;jettySize=auto;html=1;curved=0;" edge="1" parent="1">
          <mxGeometry relative="1" as="geometry">
            <mxPoint x="1490" y="339.17" as="sourcePoint" />
            <mxPoint x="1185" y="339.17" as="targetPoint" />
          </mxGeometry>
        </mxCell>
        <mxCell id="e-jiAwe50fOZGzjYshJZ-83" value="Передача кода фигуры" style="text;html=1;align=center;verticalAlign=middle;resizable=0;points=[];autosize=1;strokeColor=none;fillColor=none;" vertex="1" parent="1">
          <mxGeometry x="1325" y="310" width="150" height="30" as="geometry" />
        </mxCell>
        <mxCell id="e-jiAwe50fOZGzjYshJZ-84" value="Расчет фигуры&amp;nbsp;" style="html=1;align=left;spacingLeft=2;endArrow=block;rounded=0;edgeStyle=orthogonalEdgeStyle;curved=0;rounded=0;" edge="1" parent="1">
          <mxGeometry relative="1" as="geometry">
            <mxPoint x="1185" y="390.0000000000001" as="sourcePoint" />
            <Array as="points">
              <mxPoint x="1215" y="420" />
            </Array>
            <mxPoint x="1190" y="420.0588235294117" as="targetPoint" />
          </mxGeometry>
        </mxCell>
        <mxCell id="e-jiAwe50fOZGzjYshJZ-85" value="передача данных &lt;br&gt;для отображения&lt;br&gt;на области рисования" style="text;html=1;align=center;verticalAlign=middle;resizable=0;points=[];autosize=1;strokeColor=none;fillColor=none;" vertex="1" parent="1">
          <mxGeometry x="1178" y="466" width="150" height="60" as="geometry" />
        </mxCell>
        <mxCell id="e-jiAwe50fOZGzjYshJZ-87" value="" style="edgeStyle=none;rounded=0;orthogonalLoop=1;jettySize=auto;html=1;exitX=0.5;exitY=1;exitDx=0;exitDy=0;dashed=1;endArrow=none;endFill=0;fontSize=10;" edge="1" parent="1">
          <mxGeometry relative="1" as="geometry">
            <mxPoint x="895" y="554" as="targetPoint" />
            <mxPoint x="895" y="204" as="sourcePoint" />
          </mxGeometry>
        </mxCell>
        <mxCell id="e-jiAwe50fOZGzjYshJZ-86" value="" style="html=1;points=[[0,0,0,0,5],[0,1,0,0,-5],[1,0,0,0,5],[1,1,0,0,-5]];perimeter=orthogonalPerimeter;outlineConnect=0;targetShapes=umlLifeline;portConstraint=eastwest;newEdgeStyle={&quot;curved&quot;:0,&quot;rounded&quot;:0};" vertex="1" parent="1">
          <mxGeometry x="890" y="270" width="10" height="220" as="geometry" />
        </mxCell>
        <mxCell id="e-jiAwe50fOZGzjYshJZ-92" value="" style="edgeStyle=none;rounded=0;orthogonalLoop=1;jettySize=auto;html=1;exitX=0.5;exitY=1;exitDx=0;exitDy=0;dashed=1;endArrow=none;endFill=0;" edge="1" parent="1">
          <mxGeometry relative="1" as="geometry">
            <mxPoint x="1500" y="1052" as="targetPoint" />
            <mxPoint x="1499.52" y="702" as="sourcePoint" />
          </mxGeometry>
        </mxCell>
        <mxCell id="e-jiAwe50fOZGzjYshJZ-93" value="" style="edgeStyle=none;rounded=0;orthogonalLoop=1;jettySize=auto;html=1;exitX=0.5;exitY=1;exitDx=0;exitDy=0;dashed=1;endArrow=none;endFill=0;" edge="1" parent="1">
          <mxGeometry relative="1" as="geometry">
            <mxPoint x="1340" y="1052" as="targetPoint" />
            <mxPoint x="1339.52" y="702" as="sourcePoint" />
          </mxGeometry>
        </mxCell>
        <mxCell id="e-jiAwe50fOZGzjYshJZ-94" value="" style="edgeStyle=none;rounded=0;orthogonalLoop=1;jettySize=auto;html=1;exitX=0.5;exitY=1;exitDx=0;exitDy=0;dashed=1;endArrow=none;endFill=0;" edge="1" parent="1">
          <mxGeometry relative="1" as="geometry">
            <mxPoint x="1180" y="1052" as="targetPoint" />
            <mxPoint x="1179.52" y="702" as="sourcePoint" />
          </mxGeometry>
        </mxCell>
        <mxCell id="e-jiAwe50fOZGzjYshJZ-95" value="Пользователь" style="shape=umlActor;verticalLabelPosition=bottom;verticalAlign=top;html=1;" vertex="1" parent="1">
          <mxGeometry x="880" y="642" width="30" height="60" as="geometry" />
        </mxCell>
        <mxCell id="e-jiAwe50fOZGzjYshJZ-96" value=":File" style="rounded=0;whiteSpace=wrap;html=1;" vertex="1" parent="1">
          <mxGeometry x="960" y="672" width="120" height="30" as="geometry" />
        </mxCell>
        <mxCell id="e-jiAwe50fOZGzjYshJZ-97" value=":Graphic Code&amp;nbsp;" style="rounded=0;whiteSpace=wrap;html=1;" vertex="1" parent="1">
          <mxGeometry x="1120" y="670" width="120" height="32" as="geometry" />
        </mxCell>
        <mxCell id="e-jiAwe50fOZGzjYshJZ-98" value=":Display field" style="rounded=0;whiteSpace=wrap;html=1;" vertex="1" parent="1">
          <mxGeometry x="1280" y="670" width="120" height="32" as="geometry" />
        </mxCell>
        <mxCell id="e-jiAwe50fOZGzjYshJZ-99" value=":Object" style="rounded=0;whiteSpace=wrap;html=1;" vertex="1" parent="1">
          <mxGeometry x="1440" y="670" width="120" height="32" as="geometry" />
        </mxCell>
        <mxCell id="e-jiAwe50fOZGzjYshJZ-101" value="" style="edgeStyle=none;rounded=0;orthogonalLoop=1;jettySize=auto;html=1;exitX=0.5;exitY=1;exitDx=0;exitDy=0;dashed=1;endArrow=none;endFill=0;" edge="1" parent="1" source="e-jiAwe50fOZGzjYshJZ-96">
          <mxGeometry relative="1" as="geometry">
            <mxPoint x="1020" y="1052" as="targetPoint" />
            <mxPoint x="1020" y="702" as="sourcePoint" />
          </mxGeometry>
        </mxCell>
        <mxCell id="e-jiAwe50fOZGzjYshJZ-102" value="" style="edgeStyle=none;rounded=0;orthogonalLoop=1;jettySize=auto;html=1;exitX=0.5;exitY=1;exitDx=0;exitDy=0;dashed=1;endArrow=none;endFill=0;" edge="1" parent="1">
          <mxGeometry relative="1" as="geometry">
            <mxPoint x="895" y="1052" as="targetPoint" />
            <mxPoint x="894.6" y="682" as="sourcePoint" />
          </mxGeometry>
        </mxCell>
        <mxCell id="e-jiAwe50fOZGzjYshJZ-103" style="edgeStyle=none;rounded=0;orthogonalLoop=1;jettySize=auto;html=1;curved=0;" edge="1" parent="1">
          <mxGeometry relative="1" as="geometry">
            <mxPoint x="905" y="772" as="sourcePoint" />
            <mxPoint x="1490" y="772" as="targetPoint" />
          </mxGeometry>
        </mxCell>
        <mxCell id="e-jiAwe50fOZGzjYshJZ-104" value="" style="html=1;points=[[0,0,0,0,5],[0,1,0,0,-5],[1,0,0,0,5],[1,1,0,0,-5]];perimeter=orthogonalPerimeter;outlineConnect=0;targetShapes=umlLifeline;portConstraint=eastwest;newEdgeStyle={&quot;curved&quot;:0,&quot;rounded&quot;:0};" vertex="1" parent="1">
          <mxGeometry x="890" y="742" width="10" height="155" as="geometry" />
        </mxCell>
        <mxCell id="e-jiAwe50fOZGzjYshJZ-105" value="" style="html=1;points=[[0,0,0,0,5],[0,1,0,0,-5],[1,0,0,0,5],[1,1,0,0,-5]];perimeter=orthogonalPerimeter;outlineConnect=0;targetShapes=umlLifeline;portConstraint=eastwest;newEdgeStyle={&quot;curved&quot;:0,&quot;rounded&quot;:0};" vertex="1" parent="1">
          <mxGeometry x="1495" y="762" width="10" height="155" as="geometry" />
        </mxCell>
        <mxCell id="e-jiAwe50fOZGzjYshJZ-106" value="Выбрать&amp;nbsp;фигуру" style="text;html=1;align=center;verticalAlign=middle;resizable=0;points=[];autosize=1;strokeColor=none;fillColor=none;" vertex="1" parent="1">
          <mxGeometry x="905" y="750" width="110" height="30" as="geometry" />
        </mxCell>
        <mxCell id="e-jiAwe50fOZGzjYshJZ-107" value="" style="html=1;points=[[0,0,0,0,5],[0,1,0,0,-5],[1,0,0,0,5],[1,1,0,0,-5]];perimeter=orthogonalPerimeter;outlineConnect=0;targetShapes=umlLifeline;portConstraint=eastwest;newEdgeStyle={&quot;curved&quot;:0,&quot;rounded&quot;:0};" vertex="1" parent="1">
          <mxGeometry x="1175" y="792" width="10" height="200" as="geometry" />
        </mxCell>
        <mxCell id="e-jiAwe50fOZGzjYshJZ-108" style="edgeStyle=none;rounded=0;orthogonalLoop=1;jettySize=auto;html=1;curved=0;" edge="1" parent="1">
          <mxGeometry relative="1" as="geometry">
            <mxPoint x="1492.5" y="802" as="sourcePoint" />
            <mxPoint x="1187.5" y="802" as="targetPoint" />
          </mxGeometry>
        </mxCell>
        <mxCell id="e-jiAwe50fOZGzjYshJZ-109" value="Передача параметров фигуры" style="text;html=1;align=center;verticalAlign=middle;resizable=0;points=[];autosize=1;strokeColor=none;fillColor=none;" vertex="1" parent="1">
          <mxGeometry x="1260" y="782" width="190" height="30" as="geometry" />
        </mxCell>
        <mxCell id="e-jiAwe50fOZGzjYshJZ-110" style="edgeStyle=none;rounded=0;orthogonalLoop=1;jettySize=auto;html=1;curved=0;" edge="1" parent="1">
          <mxGeometry relative="1" as="geometry">
            <mxPoint x="905" y="818.97" as="sourcePoint" />
            <mxPoint x="1160" y="819" as="targetPoint" />
          </mxGeometry>
        </mxCell>
        <mxCell id="e-jiAwe50fOZGzjYshJZ-111" value="Выбрать параметры для иземения" style="text;html=1;align=center;verticalAlign=middle;resizable=0;points=[];autosize=1;strokeColor=none;fillColor=none;" vertex="1" parent="1">
          <mxGeometry x="900" y="792" width="220" height="30" as="geometry" />
        </mxCell>
        <mxCell id="e-jiAwe50fOZGzjYshJZ-112" style="edgeStyle=none;rounded=0;orthogonalLoop=1;jettySize=auto;html=1;curved=0;" edge="1" parent="1">
          <mxGeometry relative="1" as="geometry">
            <mxPoint x="905" y="852" as="sourcePoint" />
            <mxPoint x="1160" y="852.03" as="targetPoint" />
          </mxGeometry>
        </mxCell>
        <mxCell id="e-jiAwe50fOZGzjYshJZ-113" value="Внести изменения" style="text;html=1;align=center;verticalAlign=middle;resizable=0;points=[];autosize=1;strokeColor=none;fillColor=none;" vertex="1" parent="1">
          <mxGeometry x="945" y="824.5" width="130" height="30" as="geometry" />
        </mxCell>
        <mxCell id="e-jiAwe50fOZGzjYshJZ-114" value="Прогрузка изменений" style="html=1;align=left;spacingLeft=2;endArrow=block;rounded=0;edgeStyle=orthogonalEdgeStyle;curved=0;rounded=0;" edge="1" parent="1">
          <mxGeometry relative="1" as="geometry">
            <mxPoint x="1185" y="866.94" as="sourcePoint" />
            <Array as="points">
              <mxPoint x="1215" y="896.94" />
            </Array>
            <mxPoint x="1190" y="896.9988235294118" as="targetPoint" />
          </mxGeometry>
        </mxCell>
        <mxCell id="e-jiAwe50fOZGzjYshJZ-115" value="" style="html=1;points=[[0,0,0,0,5],[0,1,0,0,-5],[1,0,0,0,5],[1,1,0,0,-5]];perimeter=orthogonalPerimeter;outlineConnect=0;targetShapes=umlLifeline;portConstraint=eastwest;newEdgeStyle={&quot;curved&quot;:0,&quot;rounded&quot;:0};" vertex="1" parent="1">
          <mxGeometry x="1335" y="902" width="10" height="110" as="geometry" />
        </mxCell>
        <mxCell id="e-jiAwe50fOZGzjYshJZ-116" value="передача данных &lt;br&gt;для отображения&lt;br&gt;на области рисования" style="text;html=1;align=center;verticalAlign=middle;resizable=0;points=[];autosize=1;strokeColor=none;fillColor=none;" vertex="1" parent="1">
          <mxGeometry x="1185" y="902" width="150" height="60" as="geometry" />
        </mxCell>
        <mxCell id="e-jiAwe50fOZGzjYshJZ-117" style="edgeStyle=none;rounded=0;orthogonalLoop=1;jettySize=auto;html=1;curved=0;exitX=1;exitY=1;exitDx=0;exitDy=-5;exitPerimeter=0;" edge="1" parent="1">
          <mxGeometry relative="1" as="geometry">
            <mxPoint x="1185" y="962" as="sourcePoint" />
            <mxPoint x="1335" y="962" as="targetPoint" />
          </mxGeometry>
        </mxCell>
        <mxCell id="e-jiAwe50fOZGzjYshJZ-41" value="" style="html=1;points=[[0,0,0,0,5],[0,1,0,0,-5],[1,0,0,0,5],[1,1,0,0,-5]];perimeter=orthogonalPerimeter;outlineConnect=0;targetShapes=umlLifeline;portConstraint=eastwest;newEdgeStyle={&quot;curved&quot;:0,&quot;rounded&quot;:0};" vertex="1" parent="1">
          <mxGeometry x="60" y="250" width="30" height="340" as="geometry" />
        </mxCell>
        <mxCell id="e-jiAwe50fOZGzjYshJZ-20" value="" style="html=1;points=[[0,0,0,0,5],[0,1,0,0,-5],[1,0,0,0,5],[1,1,0,0,-5]];perimeter=orthogonalPerimeter;outlineConnect=0;targetShapes=umlLifeline;portConstraint=eastwest;newEdgeStyle={&quot;curved&quot;:0,&quot;rounded&quot;:0};" vertex="1" parent="1">
          <mxGeometry x="355" y="380" width="10" height="80" as="geometry" />
        </mxCell>
        <mxCell id="e-jiAwe50fOZGzjYshJZ-119" value="" style="html=1;points=[[0,0,0,0,5],[0,1,0,0,-5],[1,0,0,0,5],[1,1,0,0,-5]];perimeter=orthogonalPerimeter;outlineConnect=0;targetShapes=umlLifeline;portConstraint=eastwest;newEdgeStyle={&quot;curved&quot;:0,&quot;rounded&quot;:0};" vertex="1" parent="1">
          <mxGeometry x="345" y="380" width="30" height="90" as="geometry" />
        </mxCell>
        <mxCell id="e-jiAwe50fOZGzjYshJZ-121" style="edgeStyle=none;rounded=0;orthogonalLoop=1;jettySize=auto;html=1;curved=0;" edge="1" parent="1">
          <mxGeometry relative="1" as="geometry">
            <mxPoint x="910" y="375" as="sourcePoint" />
            <mxPoint x="1175" y="374.58" as="targetPoint" />
          </mxGeometry>
        </mxCell>
        <mxCell id="e-jiAwe50fOZGzjYshJZ-122" value="Ввод основных параметров" style="text;html=1;align=center;verticalAlign=middle;resizable=0;points=[];autosize=1;strokeColor=none;fillColor=none;" vertex="1" parent="1">
          <mxGeometry x="900" y="350" width="180" height="30" as="geometry" />
        </mxCell>
        <mxCell id="e-jiAwe50fOZGzjYshJZ-124" style="edgeStyle=none;rounded=0;orthogonalLoop=1;jettySize=auto;html=1;curved=0;" edge="1" parent="1">
          <mxGeometry relative="1" as="geometry">
            <mxPoint x="910" y="450.42" as="sourcePoint" />
            <mxPoint x="1320" y="450" as="targetPoint" />
          </mxGeometry>
        </mxCell>
        <mxCell id="e-jiAwe50fOZGzjYshJZ-125" value="Выбор расположения фигуры на дисплее" style="text;html=1;align=left;verticalAlign=middle;resizable=0;points=[];autosize=1;strokeColor=none;fillColor=none;" vertex="1" parent="1">
          <mxGeometry x="910" y="425" width="260" height="30" as="geometry" />
        </mxCell>
        <mxCell id="e-jiAwe50fOZGzjYshJZ-126" value="Отображение фигуры&lt;br&gt;на дисплее" style="html=1;align=left;spacingLeft=2;endArrow=block;rounded=0;edgeStyle=orthogonalEdgeStyle;curved=0;rounded=0;" edge="1" parent="1">
          <mxGeometry relative="1" as="geometry">
            <mxPoint x="1345" y="509.0000000000001" as="sourcePoint" />
            <Array as="points">
              <mxPoint x="1375" y="539" />
            </Array>
            <mxPoint x="1350" y="539.0588235294117" as="targetPoint" />
          </mxGeometry>
        </mxCell>
      </root>
    </mxGraphModel>
  </diagram>
  <diagram id="2jmTdkXWDUN-8AMYGxp_" name="Страница — 3">
    <mxGraphModel grid="1" page="1" gridSize="10" guides="1" tooltips="1" connect="1" arrows="1" fold="1" pageScale="1" pageWidth="827" pageHeight="1169" math="0" shadow="0">
      <root>
        <mxCell id="0" />
        <mxCell id="1" parent="0" />
        <mxCell id="GVEii9eAhE3wWIlL0cij-1" value="&lt;b&gt;:Line&lt;/b&gt;" style="swimlane;fontStyle=0;childLayout=stackLayout;horizontal=1;startSize=26;fillColor=none;horizontalStack=0;resizeParent=1;resizeParentMax=0;resizeLast=0;collapsible=1;marginBottom=0;whiteSpace=wrap;html=1;" vertex="1" parent="1">
          <mxGeometry x="330" y="320" width="140" height="208" as="geometry" />
        </mxCell>
        <mxCell id="GVEii9eAhE3wWIlL0cij-2" value="+&amp;nbsp;area : Area" style="text;strokeColor=none;fillColor=none;align=left;verticalAlign=top;spacingLeft=4;spacingRight=4;overflow=hidden;rotatable=0;points=[[0,0.5],[1,0.5]];portConstraint=eastwest;whiteSpace=wrap;html=1;" vertex="1" parent="GVEii9eAhE3wWIlL0cij-1">
          <mxGeometry y="26" width="140" height="26" as="geometry" />
        </mxCell>
        <mxCell id="GVEii9eAhE3wWIlL0cij-3" value="+ p_line: int" style="text;strokeColor=none;fillColor=none;align=left;verticalAlign=top;spacingLeft=4;spacingRight=4;overflow=hidden;rotatable=0;points=[[0,0.5],[1,0.5]];portConstraint=eastwest;whiteSpace=wrap;html=1;" vertex="1" parent="GVEii9eAhE3wWIlL0cij-1">
          <mxGeometry y="52" width="140" height="26" as="geometry" />
        </mxCell>
        <mxCell id="GVEii9eAhE3wWIlL0cij-4" value="+ color: string" style="text;strokeColor=none;fillColor=none;align=left;verticalAlign=top;spacingLeft=4;spacingRight=4;overflow=hidden;rotatable=0;points=[[0,0.5],[1,0.5]];portConstraint=eastwest;whiteSpace=wrap;html=1;" vertex="1" parent="GVEii9eAhE3wWIlL0cij-1">
          <mxGeometry y="78" width="140" height="26" as="geometry" />
        </mxCell>
        <mxCell id="GVEii9eAhE3wWIlL0cij-5" value="+ y1: int" style="text;strokeColor=none;fillColor=none;align=left;verticalAlign=top;spacingLeft=4;spacingRight=4;overflow=hidden;rotatable=0;points=[[0,0.5],[1,0.5]];portConstraint=eastwest;whiteSpace=wrap;html=1;" vertex="1" parent="GVEii9eAhE3wWIlL0cij-1">
          <mxGeometry y="104" width="140" height="26" as="geometry" />
        </mxCell>
        <mxCell id="GVEii9eAhE3wWIlL0cij-6" value="+ y2: int" style="text;strokeColor=none;fillColor=none;align=left;verticalAlign=top;spacingLeft=4;spacingRight=4;overflow=hidden;rotatable=0;points=[[0,0.5],[1,0.5]];portConstraint=eastwest;whiteSpace=wrap;html=1;" vertex="1" parent="GVEii9eAhE3wWIlL0cij-1">
          <mxGeometry y="130" width="140" height="26" as="geometry" />
        </mxCell>
        <mxCell id="GVEii9eAhE3wWIlL0cij-7" value="+ x1: int" style="text;strokeColor=none;fillColor=none;align=left;verticalAlign=top;spacingLeft=4;spacingRight=4;overflow=hidden;rotatable=0;points=[[0,0.5],[1,0.5]];portConstraint=eastwest;whiteSpace=wrap;html=1;" vertex="1" parent="GVEii9eAhE3wWIlL0cij-1">
          <mxGeometry y="156" width="140" height="26" as="geometry" />
        </mxCell>
        <mxCell id="GVEii9eAhE3wWIlL0cij-8" value="+ x2: int" style="text;strokeColor=none;fillColor=none;align=left;verticalAlign=top;spacingLeft=4;spacingRight=4;overflow=hidden;rotatable=0;points=[[0,0.5],[1,0.5]];portConstraint=eastwest;whiteSpace=wrap;html=1;" vertex="1" parent="GVEii9eAhE3wWIlL0cij-1">
          <mxGeometry y="182" width="140" height="26" as="geometry" />
        </mxCell>
        <mxCell id="GVEii9eAhE3wWIlL0cij-9" value="&amp;lt;&amp;lt;interface&amp;gt;&amp;gt;&lt;br style=&quot;border-color: var(--border-color);&quot;&gt;Интерфейс рисования" style="swimlane;fontStyle=1;align=center;verticalAlign=top;childLayout=stackLayout;horizontal=1;startSize=40;horizontalStack=0;resizeParent=1;resizeParentMax=0;resizeLast=0;collapsible=1;marginBottom=0;whiteSpace=wrap;html=1;" vertex="1" parent="1">
          <mxGeometry x="800" y="342" width="160" height="360" as="geometry" />
        </mxCell>
        <mxCell id="GVEii9eAhE3wWIlL0cij-10" value="+ draw_area: Map" style="text;strokeColor=none;fillColor=none;align=left;verticalAlign=top;spacingLeft=4;spacingRight=4;overflow=hidden;rotatable=0;points=[[0,0.5],[1,0.5]];portConstraint=eastwest;whiteSpace=wrap;html=1;" vertex="1" parent="GVEii9eAhE3wWIlL0cij-9">
          <mxGeometry y="40" width="160" height="26" as="geometry" />
        </mxCell>
        <mxCell id="GVEii9eAhE3wWIlL0cij-11" value="+ file_name:string" style="text;strokeColor=none;fillColor=none;align=left;verticalAlign=top;spacingLeft=4;spacingRight=4;overflow=hidden;rotatable=0;points=[[0,0.5],[1,0.5]];portConstraint=eastwest;whiteSpace=wrap;html=1;" vertex="1" parent="GVEii9eAhE3wWIlL0cij-9">
          <mxGeometry y="66" width="160" height="26" as="geometry" />
        </mxCell>
        <mxCell id="SQZJ6hDHrskz5XuIdT97-25" value="+ color: string" style="text;strokeColor=none;fillColor=none;align=left;verticalAlign=top;spacingLeft=4;spacingRight=4;overflow=hidden;rotatable=0;points=[[0,0.5],[1,0.5]];portConstraint=eastwest;whiteSpace=wrap;html=1;" vertex="1" parent="GVEii9eAhE3wWIlL0cij-9">
          <mxGeometry y="92" width="160" height="26" as="geometry" />
        </mxCell>
        <mxCell id="SQZJ6hDHrskz5XuIdT97-50" value="+ line_size: string" style="text;strokeColor=none;fillColor=none;align=left;verticalAlign=top;spacingLeft=4;spacingRight=4;overflow=hidden;rotatable=0;points=[[0,0.5],[1,0.5]];portConstraint=eastwest;whiteSpace=wrap;html=1;" vertex="1" parent="GVEii9eAhE3wWIlL0cij-9">
          <mxGeometry y="118" width="160" height="26" as="geometry" />
        </mxCell>
        <mxCell id="SQZJ6hDHrskz5XuIdT97-51" value="+&amp;nbsp;frame_size: string" style="text;strokeColor=none;fillColor=none;align=left;verticalAlign=top;spacingLeft=4;spacingRight=4;overflow=hidden;rotatable=0;points=[[0,0.5],[1,0.5]];portConstraint=eastwest;whiteSpace=wrap;html=1;" vertex="1" parent="GVEii9eAhE3wWIlL0cij-9">
          <mxGeometry y="144" width="160" height="26" as="geometry" />
        </mxCell>
        <mxCell id="GVEii9eAhE3wWIlL0cij-12" value="" style="line;strokeWidth=1;fillColor=none;align=left;verticalAlign=middle;spacingTop=-1;spacingLeft=3;spacingRight=3;rotatable=0;labelPosition=right;points=[];portConstraint=eastwest;strokeColor=inherit;" vertex="1" parent="GVEii9eAhE3wWIlL0cij-9">
          <mxGeometry y="170" width="160" height="8" as="geometry" />
        </mxCell>
        <mxCell id="GVEii9eAhE3wWIlL0cij-13" value="+ choose_figure()" style="text;strokeColor=none;fillColor=none;align=left;verticalAlign=top;spacingLeft=4;spacingRight=4;overflow=hidden;rotatable=0;points=[[0,0.5],[1,0.5]];portConstraint=eastwest;whiteSpace=wrap;html=1;" vertex="1" parent="GVEii9eAhE3wWIlL0cij-9">
          <mxGeometry y="178" width="160" height="26" as="geometry" />
        </mxCell>
        <mxCell id="GVEii9eAhE3wWIlL0cij-14" value="+ choose_element()" style="text;strokeColor=none;fillColor=none;align=left;verticalAlign=top;spacingLeft=4;spacingRight=4;overflow=hidden;rotatable=0;points=[[0,0.5],[1,0.5]];portConstraint=eastwest;whiteSpace=wrap;html=1;" vertex="1" parent="GVEii9eAhE3wWIlL0cij-9">
          <mxGeometry y="204" width="160" height="26" as="geometry" />
        </mxCell>
        <mxCell id="GVEii9eAhE3wWIlL0cij-15" value="+ draw_figure()" style="text;strokeColor=none;fillColor=none;align=left;verticalAlign=top;spacingLeft=4;spacingRight=4;overflow=hidden;rotatable=0;points=[[0,0.5],[1,0.5]];portConstraint=eastwest;whiteSpace=wrap;html=1;" vertex="1" parent="GVEii9eAhE3wWIlL0cij-9">
          <mxGeometry y="230" width="160" height="26" as="geometry" />
        </mxCell>
        <mxCell id="GVEii9eAhE3wWIlL0cij-16" value="+ draw_picture()" style="text;strokeColor=none;fillColor=none;align=left;verticalAlign=top;spacingLeft=4;spacingRight=4;overflow=hidden;rotatable=0;points=[[0,0.5],[1,0.5]];portConstraint=eastwest;whiteSpace=wrap;html=1;" vertex="1" parent="GVEii9eAhE3wWIlL0cij-9">
          <mxGeometry y="256" width="160" height="26" as="geometry" />
        </mxCell>
        <mxCell id="GVEii9eAhE3wWIlL0cij-17" value="+ set_place()" style="text;strokeColor=none;fillColor=none;align=left;verticalAlign=top;spacingLeft=4;spacingRight=4;overflow=hidden;rotatable=0;points=[[0,0.5],[1,0.5]];portConstraint=eastwest;whiteSpace=wrap;html=1;" vertex="1" parent="GVEii9eAhE3wWIlL0cij-9">
          <mxGeometry y="282" width="160" height="26" as="geometry" />
        </mxCell>
        <mxCell id="GVEii9eAhE3wWIlL0cij-18" value="+ set_color()" style="text;strokeColor=none;fillColor=none;align=left;verticalAlign=top;spacingLeft=4;spacingRight=4;overflow=hidden;rotatable=0;points=[[0,0.5],[1,0.5]];portConstraint=eastwest;whiteSpace=wrap;html=1;" vertex="1" parent="GVEii9eAhE3wWIlL0cij-9">
          <mxGeometry y="308" width="160" height="26" as="geometry" />
        </mxCell>
        <mxCell id="GVEii9eAhE3wWIlL0cij-19" value="+ replaced()" style="text;strokeColor=none;fillColor=none;align=left;verticalAlign=top;spacingLeft=4;spacingRight=4;overflow=hidden;rotatable=0;points=[[0,0.5],[1,0.5]];portConstraint=eastwest;whiteSpace=wrap;html=1;" vertex="1" parent="GVEii9eAhE3wWIlL0cij-9">
          <mxGeometry y="334" width="160" height="26" as="geometry" />
        </mxCell>
        <mxCell id="GVEii9eAhE3wWIlL0cij-22" value="&amp;lt;&amp;lt;interface&amp;gt;&amp;gt;&lt;br style=&quot;border-color: var(--border-color);&quot;&gt;Интерфейс граф.редактора" style="swimlane;fontStyle=1;align=center;verticalAlign=top;childLayout=stackLayout;horizontal=1;startSize=50;horizontalStack=0;resizeParent=1;resizeParentMax=0;resizeLast=0;collapsible=1;marginBottom=0;whiteSpace=wrap;html=1;" vertex="1" parent="1">
          <mxGeometry x="1020" y="206" width="160" height="136" as="geometry" />
        </mxCell>
        <mxCell id="GVEii9eAhE3wWIlL0cij-23" value="+ create_file()" style="text;strokeColor=none;fillColor=none;align=left;verticalAlign=top;spacingLeft=4;spacingRight=4;overflow=hidden;rotatable=0;points=[[0,0.5],[1,0.5]];portConstraint=eastwest;whiteSpace=wrap;html=1;" vertex="1" parent="GVEii9eAhE3wWIlL0cij-22">
          <mxGeometry y="50" width="160" height="26" as="geometry" />
        </mxCell>
        <mxCell id="GVEii9eAhE3wWIlL0cij-24" value="" style="line;strokeWidth=1;fillColor=none;align=left;verticalAlign=middle;spacingTop=-1;spacingLeft=3;spacingRight=3;rotatable=0;labelPosition=right;points=[];portConstraint=eastwest;strokeColor=inherit;" vertex="1" parent="GVEii9eAhE3wWIlL0cij-22">
          <mxGeometry y="76" width="160" height="8" as="geometry" />
        </mxCell>
        <mxCell id="GVEii9eAhE3wWIlL0cij-25" value="+ create_file()" style="text;strokeColor=none;fillColor=none;align=left;verticalAlign=top;spacingLeft=4;spacingRight=4;overflow=hidden;rotatable=0;points=[[0,0.5],[1,0.5]];portConstraint=eastwest;whiteSpace=wrap;html=1;" vertex="1" parent="GVEii9eAhE3wWIlL0cij-22">
          <mxGeometry y="84" width="160" height="26" as="geometry" />
        </mxCell>
        <mxCell id="SQZJ6hDHrskz5XuIdT97-27" value="+ delete_file()" style="text;strokeColor=none;fillColor=none;align=left;verticalAlign=top;spacingLeft=4;spacingRight=4;overflow=hidden;rotatable=0;points=[[0,0.5],[1,0.5]];portConstraint=eastwest;whiteSpace=wrap;html=1;" vertex="1" parent="GVEii9eAhE3wWIlL0cij-22">
          <mxGeometry y="110" width="160" height="26" as="geometry" />
        </mxCell>
        <mxCell id="GVEii9eAhE3wWIlL0cij-30" style="edgeStyle=orthogonalEdgeStyle;rounded=0;orthogonalLoop=1;jettySize=auto;html=1;exitX=0;exitY=0.5;exitDx=0;exitDy=0;entryX=1;entryY=0.5;entryDx=0;entryDy=0;dashed=1;" edge="1" parent="1" source="SQZJ6hDHrskz5XuIdT97-12" target="GVEii9eAhE3wWIlL0cij-11">
          <mxGeometry relative="1" as="geometry">
            <Array as="points">
              <mxPoint x="1230" y="420" />
              <mxPoint x="1220" y="420" />
              <mxPoint x="1220" y="421" />
            </Array>
          </mxGeometry>
        </mxCell>
        <mxCell id="GVEii9eAhE3wWIlL0cij-31" value="&lt;b&gt;:Square&lt;/b&gt;" style="swimlane;fontStyle=0;childLayout=stackLayout;horizontal=1;startSize=26;fillColor=none;horizontalStack=0;resizeParent=1;resizeParentMax=0;resizeLast=0;collapsible=1;marginBottom=0;whiteSpace=wrap;html=1;" vertex="1" parent="1">
          <mxGeometry x="330" y="564" width="140" height="182" as="geometry" />
        </mxCell>
        <mxCell id="GVEii9eAhE3wWIlL0cij-32" value="+ x1: int" style="text;strokeColor=none;fillColor=none;align=left;verticalAlign=top;spacingLeft=4;spacingRight=4;overflow=hidden;rotatable=0;points=[[0,0.5],[1,0.5]];portConstraint=eastwest;whiteSpace=wrap;html=1;" vertex="1" parent="GVEii9eAhE3wWIlL0cij-31">
          <mxGeometry y="26" width="140" height="26" as="geometry" />
        </mxCell>
        <mxCell id="GVEii9eAhE3wWIlL0cij-33" value="+ y1: int" style="text;strokeColor=none;fillColor=none;align=left;verticalAlign=top;spacingLeft=4;spacingRight=4;overflow=hidden;rotatable=0;points=[[0,0.5],[1,0.5]];portConstraint=eastwest;whiteSpace=wrap;html=1;" vertex="1" parent="GVEii9eAhE3wWIlL0cij-31">
          <mxGeometry y="52" width="140" height="26" as="geometry" />
        </mxCell>
        <mxCell id="GVEii9eAhE3wWIlL0cij-34" value="+ color: string" style="text;strokeColor=none;fillColor=none;align=left;verticalAlign=top;spacingLeft=4;spacingRight=4;overflow=hidden;rotatable=0;points=[[0,0.5],[1,0.5]];portConstraint=eastwest;whiteSpace=wrap;html=1;" vertex="1" parent="GVEii9eAhE3wWIlL0cij-31">
          <mxGeometry y="78" width="140" height="26" as="geometry" />
        </mxCell>
        <mxCell id="GVEii9eAhE3wWIlL0cij-35" value="+ p_line: int" style="text;strokeColor=none;fillColor=none;align=left;verticalAlign=top;spacingLeft=4;spacingRight=4;overflow=hidden;rotatable=0;points=[[0,0.5],[1,0.5]];portConstraint=eastwest;whiteSpace=wrap;html=1;" vertex="1" parent="GVEii9eAhE3wWIlL0cij-31">
          <mxGeometry y="104" width="140" height="26" as="geometry" />
        </mxCell>
        <mxCell id="GVEii9eAhE3wWIlL0cij-36" value="+&amp;nbsp;area : Area" style="text;strokeColor=none;fillColor=none;align=left;verticalAlign=top;spacingLeft=4;spacingRight=4;overflow=hidden;rotatable=0;points=[[0,0.5],[1,0.5]];portConstraint=eastwest;whiteSpace=wrap;html=1;" vertex="1" parent="GVEii9eAhE3wWIlL0cij-31">
          <mxGeometry y="130" width="140" height="26" as="geometry" />
        </mxCell>
        <mxCell id="GVEii9eAhE3wWIlL0cij-37" value="+ a: int" style="text;strokeColor=none;fillColor=none;align=left;verticalAlign=top;spacingLeft=4;spacingRight=4;overflow=hidden;rotatable=0;points=[[0,0.5],[1,0.5]];portConstraint=eastwest;whiteSpace=wrap;html=1;" vertex="1" parent="GVEii9eAhE3wWIlL0cij-31">
          <mxGeometry y="156" width="140" height="26" as="geometry" />
        </mxCell>
        <mxCell id="GVEii9eAhE3wWIlL0cij-38" value="&lt;b&gt;:Circle&lt;/b&gt;" style="swimlane;fontStyle=0;childLayout=stackLayout;horizontal=1;startSize=26;fillColor=none;horizontalStack=0;resizeParent=1;resizeParentMax=0;resizeLast=0;collapsible=1;marginBottom=0;whiteSpace=wrap;html=1;" vertex="1" parent="1">
          <mxGeometry x="330" y="754" width="140" height="182" as="geometry" />
        </mxCell>
        <mxCell id="GVEii9eAhE3wWIlL0cij-39" value="+ r: int" style="text;strokeColor=none;fillColor=none;align=left;verticalAlign=top;spacingLeft=4;spacingRight=4;overflow=hidden;rotatable=0;points=[[0,0.5],[1,0.5]];portConstraint=eastwest;whiteSpace=wrap;html=1;" vertex="1" parent="GVEii9eAhE3wWIlL0cij-38">
          <mxGeometry y="26" width="140" height="26" as="geometry" />
        </mxCell>
        <mxCell id="GVEii9eAhE3wWIlL0cij-40" value="+&amp;nbsp;area : Area" style="text;strokeColor=none;fillColor=none;align=left;verticalAlign=top;spacingLeft=4;spacingRight=4;overflow=hidden;rotatable=0;points=[[0,0.5],[1,0.5]];portConstraint=eastwest;whiteSpace=wrap;html=1;" vertex="1" parent="GVEii9eAhE3wWIlL0cij-38">
          <mxGeometry y="52" width="140" height="26" as="geometry" />
        </mxCell>
        <mxCell id="GVEii9eAhE3wWIlL0cij-41" value="+ p_line: int" style="text;strokeColor=none;fillColor=none;align=left;verticalAlign=top;spacingLeft=4;spacingRight=4;overflow=hidden;rotatable=0;points=[[0,0.5],[1,0.5]];portConstraint=eastwest;whiteSpace=wrap;html=1;" vertex="1" parent="GVEii9eAhE3wWIlL0cij-38">
          <mxGeometry y="78" width="140" height="26" as="geometry" />
        </mxCell>
        <mxCell id="GVEii9eAhE3wWIlL0cij-42" value="+ color: string" style="text;strokeColor=none;fillColor=none;align=left;verticalAlign=top;spacingLeft=4;spacingRight=4;overflow=hidden;rotatable=0;points=[[0,0.5],[1,0.5]];portConstraint=eastwest;whiteSpace=wrap;html=1;" vertex="1" parent="GVEii9eAhE3wWIlL0cij-38">
          <mxGeometry y="104" width="140" height="26" as="geometry" />
        </mxCell>
        <mxCell id="GVEii9eAhE3wWIlL0cij-43" value="+ y1: int" style="text;strokeColor=none;fillColor=none;align=left;verticalAlign=top;spacingLeft=4;spacingRight=4;overflow=hidden;rotatable=0;points=[[0,0.5],[1,0.5]];portConstraint=eastwest;whiteSpace=wrap;html=1;" vertex="1" parent="GVEii9eAhE3wWIlL0cij-38">
          <mxGeometry y="130" width="140" height="26" as="geometry" />
        </mxCell>
        <mxCell id="GVEii9eAhE3wWIlL0cij-44" value="+ x1: int" style="text;strokeColor=none;fillColor=none;align=left;verticalAlign=top;spacingLeft=4;spacingRight=4;overflow=hidden;rotatable=0;points=[[0,0.5],[1,0.5]];portConstraint=eastwest;whiteSpace=wrap;html=1;" vertex="1" parent="GVEii9eAhE3wWIlL0cij-38">
          <mxGeometry y="156" width="140" height="26" as="geometry" />
        </mxCell>
        <mxCell id="GVEii9eAhE3wWIlL0cij-45" value="&lt;b&gt;:Point&lt;/b&gt;" style="swimlane;fontStyle=0;childLayout=stackLayout;horizontal=1;startSize=26;fillColor=none;horizontalStack=0;resizeParent=1;resizeParentMax=0;resizeLast=0;collapsible=1;marginBottom=0;whiteSpace=wrap;html=1;" vertex="1" parent="1">
          <mxGeometry x="370" y="144" width="140" height="156" as="geometry" />
        </mxCell>
        <mxCell id="GVEii9eAhE3wWIlL0cij-46" value="+&amp;nbsp;area : Area" style="text;strokeColor=none;fillColor=none;align=left;verticalAlign=top;spacingLeft=4;spacingRight=4;overflow=hidden;rotatable=0;points=[[0,0.5],[1,0.5]];portConstraint=eastwest;whiteSpace=wrap;html=1;" vertex="1" parent="GVEii9eAhE3wWIlL0cij-45">
          <mxGeometry y="26" width="140" height="26" as="geometry" />
        </mxCell>
        <mxCell id="GVEii9eAhE3wWIlL0cij-47" value="+ x: int" style="text;strokeColor=none;fillColor=none;align=left;verticalAlign=top;spacingLeft=4;spacingRight=4;overflow=hidden;rotatable=0;points=[[0,0.5],[1,0.5]];portConstraint=eastwest;whiteSpace=wrap;html=1;" vertex="1" parent="GVEii9eAhE3wWIlL0cij-45">
          <mxGeometry y="52" width="140" height="26" as="geometry" />
        </mxCell>
        <mxCell id="GVEii9eAhE3wWIlL0cij-48" value="+ y: int" style="text;strokeColor=none;fillColor=none;align=left;verticalAlign=top;spacingLeft=4;spacingRight=4;overflow=hidden;rotatable=0;points=[[0,0.5],[1,0.5]];portConstraint=eastwest;whiteSpace=wrap;html=1;" vertex="1" parent="GVEii9eAhE3wWIlL0cij-45">
          <mxGeometry y="78" width="140" height="26" as="geometry" />
        </mxCell>
        <mxCell id="GVEii9eAhE3wWIlL0cij-49" value="+ color: string" style="text;strokeColor=none;fillColor=none;align=left;verticalAlign=top;spacingLeft=4;spacingRight=4;overflow=hidden;rotatable=0;points=[[0,0.5],[1,0.5]];portConstraint=eastwest;whiteSpace=wrap;html=1;" vertex="1" parent="GVEii9eAhE3wWIlL0cij-45">
          <mxGeometry y="104" width="140" height="26" as="geometry" />
        </mxCell>
        <mxCell id="GVEii9eAhE3wWIlL0cij-50" value="+ p_line: int" style="text;strokeColor=none;fillColor=none;align=left;verticalAlign=top;spacingLeft=4;spacingRight=4;overflow=hidden;rotatable=0;points=[[0,0.5],[1,0.5]];portConstraint=eastwest;whiteSpace=wrap;html=1;" vertex="1" parent="GVEii9eAhE3wWIlL0cij-45">
          <mxGeometry y="130" width="140" height="26" as="geometry" />
        </mxCell>
        <mxCell id="GVEii9eAhE3wWIlL0cij-51" value="&lt;b&gt;:Rectangle&lt;/b&gt;" style="swimlane;fontStyle=0;childLayout=stackLayout;horizontal=1;startSize=26;fillColor=none;horizontalStack=0;resizeParent=1;resizeParentMax=0;resizeLast=0;collapsible=1;marginBottom=0;whiteSpace=wrap;html=1;" vertex="1" parent="1">
          <mxGeometry x="150" y="384" width="140" height="208" as="geometry" />
        </mxCell>
        <mxCell id="GVEii9eAhE3wWIlL0cij-52" value="+ b: int" style="text;strokeColor=none;fillColor=none;align=left;verticalAlign=top;spacingLeft=4;spacingRight=4;overflow=hidden;rotatable=0;points=[[0,0.5],[1,0.5]];portConstraint=eastwest;whiteSpace=wrap;html=1;" vertex="1" parent="GVEii9eAhE3wWIlL0cij-51">
          <mxGeometry y="26" width="140" height="26" as="geometry" />
        </mxCell>
        <mxCell id="GVEii9eAhE3wWIlL0cij-53" value="+ x1: int" style="text;strokeColor=none;fillColor=none;align=left;verticalAlign=top;spacingLeft=4;spacingRight=4;overflow=hidden;rotatable=0;points=[[0,0.5],[1,0.5]];portConstraint=eastwest;whiteSpace=wrap;html=1;" vertex="1" parent="GVEii9eAhE3wWIlL0cij-51">
          <mxGeometry y="52" width="140" height="26" as="geometry" />
        </mxCell>
        <mxCell id="GVEii9eAhE3wWIlL0cij-54" value="+ a: int" style="text;strokeColor=none;fillColor=none;align=left;verticalAlign=top;spacingLeft=4;spacingRight=4;overflow=hidden;rotatable=0;points=[[0,0.5],[1,0.5]];portConstraint=eastwest;whiteSpace=wrap;html=1;" vertex="1" parent="GVEii9eAhE3wWIlL0cij-51">
          <mxGeometry y="78" width="140" height="26" as="geometry" />
        </mxCell>
        <mxCell id="GVEii9eAhE3wWIlL0cij-55" value="+&amp;nbsp;area : Area" style="text;strokeColor=none;fillColor=none;align=left;verticalAlign=top;spacingLeft=4;spacingRight=4;overflow=hidden;rotatable=0;points=[[0,0.5],[1,0.5]];portConstraint=eastwest;whiteSpace=wrap;html=1;" vertex="1" parent="GVEii9eAhE3wWIlL0cij-51">
          <mxGeometry y="104" width="140" height="26" as="geometry" />
        </mxCell>
        <mxCell id="GVEii9eAhE3wWIlL0cij-56" value="+ p_line: int" style="text;strokeColor=none;fillColor=none;align=left;verticalAlign=top;spacingLeft=4;spacingRight=4;overflow=hidden;rotatable=0;points=[[0,0.5],[1,0.5]];portConstraint=eastwest;whiteSpace=wrap;html=1;" vertex="1" parent="GVEii9eAhE3wWIlL0cij-51">
          <mxGeometry y="130" width="140" height="26" as="geometry" />
        </mxCell>
        <mxCell id="GVEii9eAhE3wWIlL0cij-57" value="+ color: string" style="text;strokeColor=none;fillColor=none;align=left;verticalAlign=top;spacingLeft=4;spacingRight=4;overflow=hidden;rotatable=0;points=[[0,0.5],[1,0.5]];portConstraint=eastwest;whiteSpace=wrap;html=1;" vertex="1" parent="GVEii9eAhE3wWIlL0cij-51">
          <mxGeometry y="156" width="140" height="26" as="geometry" />
        </mxCell>
        <mxCell id="GVEii9eAhE3wWIlL0cij-58" value="+ y1: int" style="text;strokeColor=none;fillColor=none;align=left;verticalAlign=top;spacingLeft=4;spacingRight=4;overflow=hidden;rotatable=0;points=[[0,0.5],[1,0.5]];portConstraint=eastwest;whiteSpace=wrap;html=1;" vertex="1" parent="GVEii9eAhE3wWIlL0cij-51">
          <mxGeometry y="182" width="140" height="26" as="geometry" />
        </mxCell>
        <mxCell id="GVEii9eAhE3wWIlL0cij-59" value="&lt;b&gt;:Oval&lt;/b&gt;" style="swimlane;fontStyle=0;childLayout=stackLayout;horizontal=1;startSize=26;fillColor=none;horizontalStack=0;resizeParent=1;resizeParentMax=0;resizeLast=0;collapsible=1;marginBottom=0;whiteSpace=wrap;html=1;" vertex="1" parent="1">
          <mxGeometry x="150" y="604" width="140" height="208" as="geometry" />
        </mxCell>
        <mxCell id="GVEii9eAhE3wWIlL0cij-60" value="+ r1: int" style="text;strokeColor=none;fillColor=none;align=left;verticalAlign=top;spacingLeft=4;spacingRight=4;overflow=hidden;rotatable=0;points=[[0,0.5],[1,0.5]];portConstraint=eastwest;whiteSpace=wrap;html=1;" vertex="1" parent="GVEii9eAhE3wWIlL0cij-59">
          <mxGeometry y="26" width="140" height="26" as="geometry" />
        </mxCell>
        <mxCell id="GVEii9eAhE3wWIlL0cij-61" value="+ r2: int" style="text;strokeColor=none;fillColor=none;align=left;verticalAlign=top;spacingLeft=4;spacingRight=4;overflow=hidden;rotatable=0;points=[[0,0.5],[1,0.5]];portConstraint=eastwest;whiteSpace=wrap;html=1;" vertex="1" parent="GVEii9eAhE3wWIlL0cij-59">
          <mxGeometry y="52" width="140" height="26" as="geometry" />
        </mxCell>
        <mxCell id="GVEii9eAhE3wWIlL0cij-62" value="+ x1: int" style="text;strokeColor=none;fillColor=none;align=left;verticalAlign=top;spacingLeft=4;spacingRight=4;overflow=hidden;rotatable=0;points=[[0,0.5],[1,0.5]];portConstraint=eastwest;whiteSpace=wrap;html=1;" vertex="1" parent="GVEii9eAhE3wWIlL0cij-59">
          <mxGeometry y="78" width="140" height="26" as="geometry" />
        </mxCell>
        <mxCell id="GVEii9eAhE3wWIlL0cij-63" value="+ y1: int" style="text;strokeColor=none;fillColor=none;align=left;verticalAlign=top;spacingLeft=4;spacingRight=4;overflow=hidden;rotatable=0;points=[[0,0.5],[1,0.5]];portConstraint=eastwest;whiteSpace=wrap;html=1;" vertex="1" parent="GVEii9eAhE3wWIlL0cij-59">
          <mxGeometry y="104" width="140" height="26" as="geometry" />
        </mxCell>
        <mxCell id="GVEii9eAhE3wWIlL0cij-64" value="+ color: string" style="text;strokeColor=none;fillColor=none;align=left;verticalAlign=top;spacingLeft=4;spacingRight=4;overflow=hidden;rotatable=0;points=[[0,0.5],[1,0.5]];portConstraint=eastwest;whiteSpace=wrap;html=1;" vertex="1" parent="GVEii9eAhE3wWIlL0cij-59">
          <mxGeometry y="130" width="140" height="26" as="geometry" />
        </mxCell>
        <mxCell id="GVEii9eAhE3wWIlL0cij-65" value="+ p_line: int" style="text;strokeColor=none;fillColor=none;align=left;verticalAlign=top;spacingLeft=4;spacingRight=4;overflow=hidden;rotatable=0;points=[[0,0.5],[1,0.5]];portConstraint=eastwest;whiteSpace=wrap;html=1;" vertex="1" parent="GVEii9eAhE3wWIlL0cij-59">
          <mxGeometry y="156" width="140" height="26" as="geometry" />
        </mxCell>
        <mxCell id="GVEii9eAhE3wWIlL0cij-66" value="+&amp;nbsp;area : Area" style="text;strokeColor=none;fillColor=none;align=left;verticalAlign=top;spacingLeft=4;spacingRight=4;overflow=hidden;rotatable=0;points=[[0,0.5],[1,0.5]];portConstraint=eastwest;whiteSpace=wrap;html=1;" vertex="1" parent="GVEii9eAhE3wWIlL0cij-59">
          <mxGeometry y="182" width="140" height="26" as="geometry" />
        </mxCell>
        <mxCell id="GVEii9eAhE3wWIlL0cij-67" value="&lt;b&gt;:Triangle&lt;/b&gt;" style="swimlane;fontStyle=0;childLayout=stackLayout;horizontal=1;startSize=26;fillColor=none;horizontalStack=0;resizeParent=1;resizeParentMax=0;resizeLast=0;collapsible=1;marginBottom=0;whiteSpace=wrap;html=1;" vertex="1" parent="1">
          <mxGeometry x="160" y="130" width="140" height="234" as="geometry" />
        </mxCell>
        <mxCell id="GVEii9eAhE3wWIlL0cij-68" value="+ corner: int" style="text;strokeColor=none;fillColor=none;align=left;verticalAlign=top;spacingLeft=4;spacingRight=4;overflow=hidden;rotatable=0;points=[[0,0.5],[1,0.5]];portConstraint=eastwest;whiteSpace=wrap;html=1;" vertex="1" parent="GVEii9eAhE3wWIlL0cij-67">
          <mxGeometry y="26" width="140" height="26" as="geometry" />
        </mxCell>
        <mxCell id="GVEii9eAhE3wWIlL0cij-69" value="+ x2: int" style="text;strokeColor=none;fillColor=none;align=left;verticalAlign=top;spacingLeft=4;spacingRight=4;overflow=hidden;rotatable=0;points=[[0,0.5],[1,0.5]];portConstraint=eastwest;whiteSpace=wrap;html=1;" vertex="1" parent="GVEii9eAhE3wWIlL0cij-67">
          <mxGeometry y="52" width="140" height="26" as="geometry" />
        </mxCell>
        <mxCell id="GVEii9eAhE3wWIlL0cij-70" value="+ x1: int" style="text;strokeColor=none;fillColor=none;align=left;verticalAlign=top;spacingLeft=4;spacingRight=4;overflow=hidden;rotatable=0;points=[[0,0.5],[1,0.5]];portConstraint=eastwest;whiteSpace=wrap;html=1;" vertex="1" parent="GVEii9eAhE3wWIlL0cij-67">
          <mxGeometry y="78" width="140" height="26" as="geometry" />
        </mxCell>
        <mxCell id="GVEii9eAhE3wWIlL0cij-71" value="+ y2: int" style="text;strokeColor=none;fillColor=none;align=left;verticalAlign=top;spacingLeft=4;spacingRight=4;overflow=hidden;rotatable=0;points=[[0,0.5],[1,0.5]];portConstraint=eastwest;whiteSpace=wrap;html=1;" vertex="1" parent="GVEii9eAhE3wWIlL0cij-67">
          <mxGeometry y="104" width="140" height="26" as="geometry" />
        </mxCell>
        <mxCell id="GVEii9eAhE3wWIlL0cij-72" value="+ y1: int" style="text;strokeColor=none;fillColor=none;align=left;verticalAlign=top;spacingLeft=4;spacingRight=4;overflow=hidden;rotatable=0;points=[[0,0.5],[1,0.5]];portConstraint=eastwest;whiteSpace=wrap;html=1;" vertex="1" parent="GVEii9eAhE3wWIlL0cij-67">
          <mxGeometry y="130" width="140" height="26" as="geometry" />
        </mxCell>
        <mxCell id="GVEii9eAhE3wWIlL0cij-73" value="+ color: string" style="text;strokeColor=none;fillColor=none;align=left;verticalAlign=top;spacingLeft=4;spacingRight=4;overflow=hidden;rotatable=0;points=[[0,0.5],[1,0.5]];portConstraint=eastwest;whiteSpace=wrap;html=1;" vertex="1" parent="GVEii9eAhE3wWIlL0cij-67">
          <mxGeometry y="156" width="140" height="26" as="geometry" />
        </mxCell>
        <mxCell id="GVEii9eAhE3wWIlL0cij-74" value="+ p_line: int" style="text;strokeColor=none;fillColor=none;align=left;verticalAlign=top;spacingLeft=4;spacingRight=4;overflow=hidden;rotatable=0;points=[[0,0.5],[1,0.5]];portConstraint=eastwest;whiteSpace=wrap;html=1;" vertex="1" parent="GVEii9eAhE3wWIlL0cij-67">
          <mxGeometry y="182" width="140" height="26" as="geometry" />
        </mxCell>
        <mxCell id="GVEii9eAhE3wWIlL0cij-75" value="+&amp;nbsp;area : Area" style="text;strokeColor=none;fillColor=none;align=left;verticalAlign=top;spacingLeft=4;spacingRight=4;overflow=hidden;rotatable=0;points=[[0,0.5],[1,0.5]];portConstraint=eastwest;whiteSpace=wrap;html=1;" vertex="1" parent="GVEii9eAhE3wWIlL0cij-67">
          <mxGeometry y="208" width="140" height="26" as="geometry" />
        </mxCell>
        <mxCell id="GVEii9eAhE3wWIlL0cij-76" style="edgeStyle=orthogonalEdgeStyle;rounded=0;orthogonalLoop=1;jettySize=auto;html=1;exitX=0;exitY=0.5;exitDx=0;exitDy=0;entryX=1;entryY=0.5;entryDx=0;entryDy=0;endArrow=blockThin;endFill=0;" edge="1" parent="1" source="SQZJ6hDHrskz5XuIdT97-2" target="GVEii9eAhE3wWIlL0cij-46">
          <mxGeometry relative="1" as="geometry">
            <Array as="points">
              <mxPoint x="610" y="530" />
              <mxPoint x="560" y="530" />
              <mxPoint x="560" y="183" />
            </Array>
          </mxGeometry>
        </mxCell>
        <mxCell id="GVEii9eAhE3wWIlL0cij-77" style="edgeStyle=orthogonalEdgeStyle;rounded=0;orthogonalLoop=1;jettySize=auto;html=1;exitX=0;exitY=0.5;exitDx=0;exitDy=0;entryX=1;entryY=0.5;entryDx=0;entryDy=0;endArrow=blockThin;endFill=0;" edge="1" parent="1" source="SQZJ6hDHrskz5XuIdT97-2" target="GVEii9eAhE3wWIlL0cij-68">
          <mxGeometry relative="1" as="geometry">
            <mxPoint x="770" y="432" as="sourcePoint" />
            <Array as="points">
              <mxPoint x="610" y="530" />
              <mxPoint x="560" y="530" />
              <mxPoint x="560" y="310" />
              <mxPoint x="340" y="310" />
              <mxPoint x="340" y="169" />
            </Array>
          </mxGeometry>
        </mxCell>
        <mxCell id="GVEii9eAhE3wWIlL0cij-78" style="edgeStyle=orthogonalEdgeStyle;rounded=0;orthogonalLoop=1;jettySize=auto;html=1;exitX=0;exitY=0.5;exitDx=0;exitDy=0;entryX=1;entryY=0.5;entryDx=0;entryDy=0;endArrow=blockThin;endFill=0;" edge="1" parent="1" source="SQZJ6hDHrskz5XuIdT97-2" target="GVEii9eAhE3wWIlL0cij-40">
          <mxGeometry relative="1" as="geometry">
            <mxPoint x="710" y="967" as="targetPoint" />
            <Array as="points">
              <mxPoint x="560" y="360" />
              <mxPoint x="560" y="819" />
            </Array>
          </mxGeometry>
        </mxCell>
        <mxCell id="GVEii9eAhE3wWIlL0cij-79" style="edgeStyle=orthogonalEdgeStyle;rounded=0;orthogonalLoop=1;jettySize=auto;html=1;exitX=0;exitY=0.5;exitDx=0;exitDy=0;entryX=1;entryY=0.75;entryDx=0;entryDy=0;endArrow=blockThin;endFill=0;" edge="1" parent="1" source="SQZJ6hDHrskz5XuIdT97-2" target="GVEii9eAhE3wWIlL0cij-31">
          <mxGeometry relative="1" as="geometry">
            <mxPoint x="710" y="511" as="targetPoint" />
            <mxPoint x="780" y="452" as="sourcePoint" />
            <Array as="points">
              <mxPoint x="560" y="360" />
              <mxPoint x="560" y="700" />
            </Array>
          </mxGeometry>
        </mxCell>
        <mxCell id="GVEii9eAhE3wWIlL0cij-80" style="edgeStyle=orthogonalEdgeStyle;rounded=0;orthogonalLoop=1;jettySize=auto;html=1;exitX=0;exitY=0.5;exitDx=0;exitDy=0;entryX=1;entryY=0.5;entryDx=0;entryDy=0;endArrow=blockThin;endFill=0;" edge="1" parent="1" source="SQZJ6hDHrskz5XuIdT97-2" target="GVEii9eAhE3wWIlL0cij-2">
          <mxGeometry relative="1" as="geometry">
            <Array as="points">
              <mxPoint x="610" y="359" />
            </Array>
          </mxGeometry>
        </mxCell>
        <mxCell id="GVEii9eAhE3wWIlL0cij-81" style="edgeStyle=orthogonalEdgeStyle;rounded=0;orthogonalLoop=1;jettySize=auto;html=1;exitX=0;exitY=0.5;exitDx=0;exitDy=0;endArrow=blockThin;endFill=0;entryX=1;entryY=0.5;entryDx=0;entryDy=0;" edge="1" parent="1" source="SQZJ6hDHrskz5XuIdT97-2" target="GVEii9eAhE3wWIlL0cij-52">
          <mxGeometry relative="1" as="geometry">
            <mxPoint x="540" y="477" as="targetPoint" />
            <Array as="points">
              <mxPoint x="560" y="360" />
              <mxPoint x="560" y="550" />
              <mxPoint x="310" y="550" />
              <mxPoint x="310" y="423" />
            </Array>
          </mxGeometry>
        </mxCell>
        <mxCell id="GVEii9eAhE3wWIlL0cij-82" style="edgeStyle=orthogonalEdgeStyle;rounded=0;orthogonalLoop=1;jettySize=auto;html=1;exitX=0;exitY=0.5;exitDx=0;exitDy=0;entryX=1;entryY=0.5;entryDx=0;entryDy=0;endArrow=blockThin;endFill=0;" edge="1" parent="1" source="SQZJ6hDHrskz5XuIdT97-2" target="GVEii9eAhE3wWIlL0cij-60">
          <mxGeometry relative="1" as="geometry">
            <mxPoint x="540" y="687" as="targetPoint" />
            <Array as="points">
              <mxPoint x="560" y="360" />
              <mxPoint x="560" y="550" />
              <mxPoint x="310" y="550" />
              <mxPoint x="310" y="643" />
            </Array>
          </mxGeometry>
        </mxCell>
        <mxCell id="GVEii9eAhE3wWIlL0cij-83" value="Draw Area" style="swimlane;fontStyle=1;align=center;verticalAlign=top;childLayout=stackLayout;horizontal=1;startSize=40;horizontalStack=0;resizeParent=1;resizeParentMax=0;resizeLast=0;collapsible=1;marginBottom=0;whiteSpace=wrap;html=1;" vertex="1" parent="1">
          <mxGeometry x="800" y="110" width="160" height="178" as="geometry" />
        </mxCell>
        <mxCell id="GVEii9eAhE3wWIlL0cij-84" value="+ Size:&amp;nbsp;(x : int, y : int)&lt;br/&gt;" style="text;strokeColor=none;fillColor=none;align=left;verticalAlign=top;spacingLeft=4;spacingRight=4;overflow=hidden;rotatable=0;points=[[0,0.5],[1,0.5]];portConstraint=eastwest;whiteSpace=wrap;html=1;" vertex="1" parent="GVEii9eAhE3wWIlL0cij-83">
          <mxGeometry y="40" width="160" height="26" as="geometry" />
        </mxCell>
        <mxCell id="GVEii9eAhE3wWIlL0cij-85" value="+Colore:string" style="text;strokeColor=none;fillColor=none;align=left;verticalAlign=top;spacingLeft=4;spacingRight=4;overflow=hidden;rotatable=0;points=[[0,0.5],[1,0.5]];portConstraint=eastwest;whiteSpace=wrap;html=1;" vertex="1" parent="GVEii9eAhE3wWIlL0cij-83">
          <mxGeometry y="66" width="160" height="26" as="geometry" />
        </mxCell>
        <mxCell id="GVEii9eAhE3wWIlL0cij-86" value="" style="line;strokeWidth=1;fillColor=none;align=left;verticalAlign=middle;spacingTop=-1;spacingLeft=3;spacingRight=3;rotatable=0;labelPosition=right;points=[];portConstraint=eastwest;strokeColor=inherit;" vertex="1" parent="GVEii9eAhE3wWIlL0cij-83">
          <mxGeometry y="92" width="160" height="8" as="geometry" />
        </mxCell>
        <mxCell id="GVEii9eAhE3wWIlL0cij-87" value="+ set_color()" style="text;strokeColor=none;fillColor=none;align=left;verticalAlign=top;spacingLeft=4;spacingRight=4;overflow=hidden;rotatable=0;points=[[0,0.5],[1,0.5]];portConstraint=eastwest;whiteSpace=wrap;html=1;" vertex="1" parent="GVEii9eAhE3wWIlL0cij-83">
          <mxGeometry y="100" width="160" height="26" as="geometry" />
        </mxCell>
        <mxCell id="GVEii9eAhE3wWIlL0cij-88" value="+ change_size()" style="text;strokeColor=none;fillColor=none;align=left;verticalAlign=top;spacingLeft=4;spacingRight=4;overflow=hidden;rotatable=0;points=[[0,0.5],[1,0.5]];portConstraint=eastwest;whiteSpace=wrap;html=1;" vertex="1" parent="GVEii9eAhE3wWIlL0cij-83">
          <mxGeometry y="126" width="160" height="26" as="geometry" />
        </mxCell>
        <mxCell id="GVEii9eAhE3wWIlL0cij-89" value="+ clean_everything()" style="text;strokeColor=none;fillColor=none;align=left;verticalAlign=top;spacingLeft=4;spacingRight=4;overflow=hidden;rotatable=0;points=[[0,0.5],[1,0.5]];portConstraint=eastwest;whiteSpace=wrap;html=1;" vertex="1" parent="GVEii9eAhE3wWIlL0cij-83">
          <mxGeometry y="152" width="160" height="26" as="geometry" />
        </mxCell>
        <mxCell id="GVEii9eAhE3wWIlL0cij-90" style="edgeStyle=orthogonalEdgeStyle;rounded=0;orthogonalLoop=1;jettySize=auto;html=1;exitX=0;exitY=0.5;exitDx=0;exitDy=0;entryX=0;entryY=0.5;entryDx=0;entryDy=0;" edge="1" parent="1" source="GVEii9eAhE3wWIlL0cij-10" target="GVEii9eAhE3wWIlL0cij-85">
          <mxGeometry relative="1" as="geometry" />
        </mxCell>
        <mxCell id="GVEii9eAhE3wWIlL0cij-91" value="&lt;font style=&quot;font-size: 16px;&quot;&gt;File&lt;/font&gt;" style="swimlane;fontStyle=1;align=center;verticalAlign=top;childLayout=stackLayout;horizontal=1;startSize=40;horizontalStack=0;resizeParent=1;resizeParentMax=0;resizeLast=0;collapsible=1;marginBottom=0;whiteSpace=wrap;html=1;" vertex="1" parent="1">
          <mxGeometry x="1230" y="280" width="160" height="256" as="geometry" />
        </mxCell>
        <mxCell id="GVEii9eAhE3wWIlL0cij-92" value="+ file_name:string" style="text;strokeColor=none;fillColor=none;align=left;verticalAlign=top;spacingLeft=4;spacingRight=4;overflow=hidden;rotatable=0;points=[[0,0.5],[1,0.5]];portConstraint=eastwest;whiteSpace=wrap;html=1;" vertex="1" parent="GVEii9eAhE3wWIlL0cij-91">
          <mxGeometry y="40" width="160" height="26" as="geometry" />
        </mxCell>
        <mxCell id="GVEii9eAhE3wWIlL0cij-93" value="+ Gr_Libr: Library &amp;lt;Name&amp;gt;" style="text;strokeColor=none;fillColor=none;align=left;verticalAlign=top;spacingLeft=4;spacingRight=4;overflow=hidden;rotatable=0;points=[[0,0.5],[1,0.5]];portConstraint=eastwest;whiteSpace=wrap;html=1;" vertex="1" parent="GVEii9eAhE3wWIlL0cij-91">
          <mxGeometry y="66" width="160" height="26" as="geometry" />
        </mxCell>
        <mxCell id="GVEii9eAhE3wWIlL0cij-94" value="+ Type: name &amp;lt;type&amp;gt;" style="text;strokeColor=none;fillColor=none;align=left;verticalAlign=top;spacingLeft=4;spacingRight=4;overflow=hidden;rotatable=0;points=[[0,0.5],[1,0.5]];portConstraint=eastwest;whiteSpace=wrap;html=1;" vertex="1" parent="GVEii9eAhE3wWIlL0cij-91">
          <mxGeometry y="92" width="160" height="26" as="geometry" />
        </mxCell>
        <mxCell id="GVEii9eAhE3wWIlL0cij-95" value="" style="line;strokeWidth=1;fillColor=none;align=left;verticalAlign=middle;spacingTop=-1;spacingLeft=3;spacingRight=3;rotatable=0;labelPosition=right;points=[];portConstraint=eastwest;strokeColor=inherit;" vertex="1" parent="GVEii9eAhE3wWIlL0cij-91">
          <mxGeometry y="118" width="160" height="8" as="geometry" />
        </mxCell>
        <mxCell id="SQZJ6hDHrskz5XuIdT97-12" value="+ open_file()" style="text;strokeColor=none;fillColor=none;align=left;verticalAlign=top;spacingLeft=4;spacingRight=4;overflow=hidden;rotatable=0;points=[[0,0.5],[1,0.5]];portConstraint=eastwest;whiteSpace=wrap;html=1;" vertex="1" parent="GVEii9eAhE3wWIlL0cij-91">
          <mxGeometry y="126" width="160" height="26" as="geometry" />
        </mxCell>
        <mxCell id="GVEii9eAhE3wWIlL0cij-27" value="+ save_file()" style="text;strokeColor=none;fillColor=none;align=left;verticalAlign=top;spacingLeft=4;spacingRight=4;overflow=hidden;rotatable=0;points=[[0,0.5],[1,0.5]];portConstraint=eastwest;whiteSpace=wrap;html=1;" vertex="1" parent="GVEii9eAhE3wWIlL0cij-91">
          <mxGeometry y="152" width="160" height="26" as="geometry" />
        </mxCell>
        <mxCell id="GVEii9eAhE3wWIlL0cij-28" value="+ close_file()" style="text;strokeColor=none;fillColor=none;align=left;verticalAlign=top;spacingLeft=4;spacingRight=4;overflow=hidden;rotatable=0;points=[[0,0.5],[1,0.5]];portConstraint=eastwest;whiteSpace=wrap;html=1;" vertex="1" parent="GVEii9eAhE3wWIlL0cij-91">
          <mxGeometry y="178" width="160" height="26" as="geometry" />
        </mxCell>
        <mxCell id="SQZJ6hDHrskz5XuIdT97-22" value="+ change_file()" style="text;strokeColor=none;fillColor=none;align=left;verticalAlign=top;spacingLeft=4;spacingRight=4;overflow=hidden;rotatable=0;points=[[0,0.5],[1,0.5]];portConstraint=eastwest;whiteSpace=wrap;html=1;" vertex="1" parent="GVEii9eAhE3wWIlL0cij-91">
          <mxGeometry y="204" width="160" height="26" as="geometry" />
        </mxCell>
        <mxCell id="SQZJ6hDHrskz5XuIdT97-28" value="+ copy_file()" style="text;strokeColor=none;fillColor=none;align=left;verticalAlign=top;spacingLeft=4;spacingRight=4;overflow=hidden;rotatable=0;points=[[0,0.5],[1,0.5]];portConstraint=eastwest;whiteSpace=wrap;html=1;" vertex="1" parent="GVEii9eAhE3wWIlL0cij-91">
          <mxGeometry y="230" width="160" height="26" as="geometry" />
        </mxCell>
        <mxCell id="GVEii9eAhE3wWIlL0cij-96" style="edgeStyle=orthogonalEdgeStyle;rounded=0;orthogonalLoop=1;jettySize=auto;html=1;exitX=1;exitY=0.5;exitDx=0;exitDy=0;entryX=0;entryY=0.5;entryDx=0;entryDy=0;" edge="1" parent="1" source="GVEii9eAhE3wWIlL0cij-25" target="GVEii9eAhE3wWIlL0cij-92">
          <mxGeometry relative="1" as="geometry" />
        </mxCell>
        <mxCell id="GVEii9eAhE3wWIlL0cij-97" value="&lt;b&gt;Element&lt;/b&gt;" style="swimlane;fontStyle=0;childLayout=stackLayout;horizontal=1;startSize=26;fillColor=none;horizontalStack=0;resizeParent=1;resizeParentMax=0;resizeLast=0;collapsible=1;marginBottom=0;whiteSpace=wrap;html=1;" vertex="1" parent="1">
          <mxGeometry x="610" y="564" width="140" height="208" as="geometry" />
        </mxCell>
        <mxCell id="GVEii9eAhE3wWIlL0cij-98" value="+&amp;nbsp;Name : string" style="text;strokeColor=none;fillColor=none;align=left;verticalAlign=top;spacingLeft=4;spacingRight=4;overflow=hidden;rotatable=0;points=[[0,0.5],[1,0.5]];portConstraint=eastwest;whiteSpace=wrap;html=1;" vertex="1" parent="GVEii9eAhE3wWIlL0cij-97">
          <mxGeometry y="26" width="140" height="26" as="geometry" />
        </mxCell>
        <mxCell id="GVEii9eAhE3wWIlL0cij-99" value="+ components: &amp;lt;code&amp;gt;" style="text;strokeColor=none;fillColor=none;align=left;verticalAlign=top;spacingLeft=4;spacingRight=4;overflow=hidden;rotatable=0;points=[[0,0.5],[1,0.5]];portConstraint=eastwest;whiteSpace=wrap;html=1;" vertex="1" parent="GVEii9eAhE3wWIlL0cij-97">
          <mxGeometry y="52" width="140" height="26" as="geometry" />
        </mxCell>
        <mxCell id="SQZJ6hDHrskz5XuIdT97-11" value="+ x1: int" style="text;strokeColor=none;fillColor=none;align=left;verticalAlign=top;spacingLeft=4;spacingRight=4;overflow=hidden;rotatable=0;points=[[0,0.5],[1,0.5]];portConstraint=eastwest;whiteSpace=wrap;html=1;" vertex="1" parent="GVEii9eAhE3wWIlL0cij-97">
          <mxGeometry y="78" width="140" height="26" as="geometry" />
        </mxCell>
        <mxCell id="GVEii9eAhE3wWIlL0cij-100" value="+ y1: int" style="text;strokeColor=none;fillColor=none;align=left;verticalAlign=top;spacingLeft=4;spacingRight=4;overflow=hidden;rotatable=0;points=[[0,0.5],[1,0.5]];portConstraint=eastwest;whiteSpace=wrap;html=1;" vertex="1" parent="GVEii9eAhE3wWIlL0cij-97">
          <mxGeometry y="104" width="140" height="26" as="geometry" />
        </mxCell>
        <mxCell id="GVEii9eAhE3wWIlL0cij-101" value="+ color: string" style="text;strokeColor=none;fillColor=none;align=left;verticalAlign=top;spacingLeft=4;spacingRight=4;overflow=hidden;rotatable=0;points=[[0,0.5],[1,0.5]];portConstraint=eastwest;whiteSpace=wrap;html=1;" vertex="1" parent="GVEii9eAhE3wWIlL0cij-97">
          <mxGeometry y="130" width="140" height="26" as="geometry" />
        </mxCell>
        <mxCell id="GVEii9eAhE3wWIlL0cij-102" value="+ p_line: int" style="text;strokeColor=none;fillColor=none;align=left;verticalAlign=top;spacingLeft=4;spacingRight=4;overflow=hidden;rotatable=0;points=[[0,0.5],[1,0.5]];portConstraint=eastwest;whiteSpace=wrap;html=1;" vertex="1" parent="GVEii9eAhE3wWIlL0cij-97">
          <mxGeometry y="156" width="140" height="26" as="geometry" />
        </mxCell>
        <mxCell id="GVEii9eAhE3wWIlL0cij-103" value="+ a: int" style="text;strokeColor=none;fillColor=none;align=left;verticalAlign=top;spacingLeft=4;spacingRight=4;overflow=hidden;rotatable=0;points=[[0,0.5],[1,0.5]];portConstraint=eastwest;whiteSpace=wrap;html=1;" vertex="1" parent="GVEii9eAhE3wWIlL0cij-97">
          <mxGeometry y="182" width="140" height="26" as="geometry" />
        </mxCell>
        <mxCell id="GVEii9eAhE3wWIlL0cij-104" style="edgeStyle=orthogonalEdgeStyle;rounded=0;orthogonalLoop=1;jettySize=auto;html=1;exitX=0;exitY=0.5;exitDx=0;exitDy=0;entryX=1;entryY=0.5;entryDx=0;entryDy=0;endArrow=blockThin;endFill=0;" edge="1" parent="1" source="GVEii9eAhE3wWIlL0cij-14" target="GVEii9eAhE3wWIlL0cij-98">
          <mxGeometry relative="1" as="geometry">
            <Array as="points">
              <mxPoint x="800" y="481" />
              <mxPoint x="790" y="481" />
              <mxPoint x="790" y="603" />
            </Array>
          </mxGeometry>
        </mxCell>
        <mxCell id="GVEii9eAhE3wWIlL0cij-112" value="&lt;b&gt;Color&lt;/b&gt;" style="swimlane;fontStyle=0;childLayout=stackLayout;horizontal=1;startSize=26;fillColor=none;horizontalStack=0;resizeParent=1;resizeParentMax=0;resizeLast=0;collapsible=1;marginBottom=0;whiteSpace=wrap;html=1;" vertex="1" parent="1">
          <mxGeometry x="1047" y="434" width="140" height="190" as="geometry" />
        </mxCell>
        <mxCell id="GVEii9eAhE3wWIlL0cij-113" value="+&amp;nbsp;color_code: string" style="text;strokeColor=none;fillColor=none;align=left;verticalAlign=top;spacingLeft=4;spacingRight=4;overflow=hidden;rotatable=0;points=[[0,0.5],[1,0.5]];portConstraint=eastwest;whiteSpace=wrap;html=1;" vertex="1" parent="GVEii9eAhE3wWIlL0cij-112">
          <mxGeometry y="26" width="140" height="26" as="geometry" />
        </mxCell>
        <mxCell id="SQZJ6hDHrskz5XuIdT97-30" value="+ red: int" style="text;strokeColor=none;fillColor=none;align=left;verticalAlign=top;spacingLeft=4;spacingRight=4;overflow=hidden;rotatable=0;points=[[0,0.5],[1,0.5]];portConstraint=eastwest;whiteSpace=wrap;html=1;" vertex="1" parent="GVEii9eAhE3wWIlL0cij-112">
          <mxGeometry y="52" width="140" height="26" as="geometry" />
        </mxCell>
        <mxCell id="SQZJ6hDHrskz5XuIdT97-31" value="+ blue: int" style="text;strokeColor=none;fillColor=none;align=left;verticalAlign=top;spacingLeft=4;spacingRight=4;overflow=hidden;rotatable=0;points=[[0,0.5],[1,0.5]];portConstraint=eastwest;whiteSpace=wrap;html=1;" vertex="1" parent="GVEii9eAhE3wWIlL0cij-112">
          <mxGeometry y="78" width="140" height="26" as="geometry" />
        </mxCell>
        <mxCell id="SQZJ6hDHrskz5XuIdT97-38" value="+ green: int" style="text;strokeColor=none;fillColor=none;align=left;verticalAlign=top;spacingLeft=4;spacingRight=4;overflow=hidden;rotatable=0;points=[[0,0.5],[1,0.5]];portConstraint=eastwest;whiteSpace=wrap;html=1;" vertex="1" parent="GVEii9eAhE3wWIlL0cij-112">
          <mxGeometry y="104" width="140" height="26" as="geometry" />
        </mxCell>
        <mxCell id="SQZJ6hDHrskz5XuIdT97-46" value="+&amp;nbsp;transparency: int" style="text;strokeColor=none;fillColor=none;align=left;verticalAlign=top;spacingLeft=4;spacingRight=4;overflow=hidden;rotatable=0;points=[[0,0.5],[1,0.5]];portConstraint=eastwest;whiteSpace=wrap;html=1;" vertex="1" parent="GVEii9eAhE3wWIlL0cij-112">
          <mxGeometry y="130" width="140" height="26" as="geometry" />
        </mxCell>
        <mxCell id="SQZJ6hDHrskz5XuIdT97-24" value="" style="line;strokeWidth=1;fillColor=none;align=left;verticalAlign=middle;spacingTop=-1;spacingLeft=3;spacingRight=3;rotatable=0;labelPosition=right;points=[];portConstraint=eastwest;strokeColor=inherit;" vertex="1" parent="GVEii9eAhE3wWIlL0cij-112">
          <mxGeometry y="156" width="140" height="8" as="geometry" />
        </mxCell>
        <mxCell id="SQZJ6hDHrskz5XuIdT97-29" value="+ change_color()" style="text;strokeColor=none;fillColor=none;align=left;verticalAlign=top;spacingLeft=4;spacingRight=4;overflow=hidden;rotatable=0;points=[[0,0.5],[1,0.5]];portConstraint=eastwest;whiteSpace=wrap;html=1;" vertex="1" parent="GVEii9eAhE3wWIlL0cij-112">
          <mxGeometry y="164" width="140" height="26" as="geometry" />
        </mxCell>
        <mxCell id="GVEii9eAhE3wWIlL0cij-115" value="&lt;b&gt;Pixel&lt;/b&gt;" style="swimlane;fontStyle=0;childLayout=stackLayout;horizontal=1;startSize=26;fillColor=none;horizontalStack=0;resizeParent=1;resizeParentMax=0;resizeLast=0;collapsible=1;marginBottom=0;whiteSpace=wrap;html=1;" vertex="1" parent="1">
          <mxGeometry x="1047" y="639" width="140" height="112" as="geometry" />
        </mxCell>
        <mxCell id="GVEii9eAhE3wWIlL0cij-116" value="+&amp;nbsp;size: int" style="text;strokeColor=none;fillColor=none;align=left;verticalAlign=top;spacingLeft=4;spacingRight=4;overflow=hidden;rotatable=0;points=[[0,0.5],[1,0.5]];portConstraint=eastwest;whiteSpace=wrap;html=1;" vertex="1" parent="GVEii9eAhE3wWIlL0cij-115">
          <mxGeometry y="26" width="140" height="26" as="geometry" />
        </mxCell>
        <mxCell id="GVEii9eAhE3wWIlL0cij-117" value="+&amp;nbsp;color: string" style="text;strokeColor=none;fillColor=none;align=left;verticalAlign=top;spacingLeft=4;spacingRight=4;overflow=hidden;rotatable=0;points=[[0,0.5],[1,0.5]];portConstraint=eastwest;whiteSpace=wrap;html=1;" vertex="1" parent="GVEii9eAhE3wWIlL0cij-115">
          <mxGeometry y="52" width="140" height="26" as="geometry" />
        </mxCell>
        <mxCell id="SQZJ6hDHrskz5XuIdT97-48" value="" style="line;strokeWidth=1;fillColor=none;align=left;verticalAlign=middle;spacingTop=-1;spacingLeft=3;spacingRight=3;rotatable=0;labelPosition=right;points=[];portConstraint=eastwest;strokeColor=inherit;" vertex="1" parent="GVEii9eAhE3wWIlL0cij-115">
          <mxGeometry y="78" width="140" height="8" as="geometry" />
        </mxCell>
        <mxCell id="SQZJ6hDHrskz5XuIdT97-49" value="+ change_p_line()" style="text;strokeColor=none;fillColor=none;align=left;verticalAlign=top;spacingLeft=4;spacingRight=4;overflow=hidden;rotatable=0;points=[[0,0.5],[1,0.5]];portConstraint=eastwest;whiteSpace=wrap;html=1;" vertex="1" parent="GVEii9eAhE3wWIlL0cij-115">
          <mxGeometry y="86" width="140" height="26" as="geometry" />
        </mxCell>
        <mxCell id="GVEii9eAhE3wWIlL0cij-120" style="edgeStyle=orthogonalEdgeStyle;rounded=0;orthogonalLoop=1;jettySize=auto;html=1;exitX=1;exitY=0.5;exitDx=0;exitDy=0;entryX=1;entryY=0.5;entryDx=0;entryDy=0;" edge="1" parent="1" source="GVEii9eAhE3wWIlL0cij-113" target="GVEii9eAhE3wWIlL0cij-117">
          <mxGeometry relative="1" as="geometry">
            <Array as="points">
              <mxPoint x="1210" y="473" />
              <mxPoint x="1210" y="704" />
            </Array>
          </mxGeometry>
        </mxCell>
        <mxCell id="GVEii9eAhE3wWIlL0cij-121" value="GraphicLibrary" style="swimlane;fontStyle=1;align=center;verticalAlign=top;childLayout=stackLayout;horizontal=1;startSize=40;horizontalStack=0;resizeParent=1;resizeParentMax=0;resizeLast=0;collapsible=1;marginBottom=0;whiteSpace=wrap;html=1;" vertex="1" parent="1">
          <mxGeometry x="1440" y="399" width="160" height="178" as="geometry" />
        </mxCell>
        <mxCell id="GVEii9eAhE3wWIlL0cij-122" value="+ Gr_lib_name:string" style="text;strokeColor=none;fillColor=none;align=left;verticalAlign=top;spacingLeft=4;spacingRight=4;overflow=hidden;rotatable=0;points=[[0,0.5],[1,0.5]];portConstraint=eastwest;whiteSpace=wrap;html=1;" vertex="1" parent="GVEii9eAhE3wWIlL0cij-121">
          <mxGeometry y="40" width="160" height="26" as="geometry" />
        </mxCell>
        <mxCell id="GVEii9eAhE3wWIlL0cij-123" value="+ g : AbstractGraphicLibrary" style="text;strokeColor=none;fillColor=none;align=left;verticalAlign=top;spacingLeft=4;spacingRight=4;overflow=hidden;rotatable=0;points=[[0,0.5],[1,0.5]];portConstraint=eastwest;whiteSpace=wrap;html=1;" vertex="1" parent="GVEii9eAhE3wWIlL0cij-121">
          <mxGeometry y="66" width="160" height="26" as="geometry" />
        </mxCell>
        <mxCell id="GVEii9eAhE3wWIlL0cij-124" value="+ Figures: string" style="text;strokeColor=none;fillColor=none;align=left;verticalAlign=top;spacingLeft=4;spacingRight=4;overflow=hidden;rotatable=0;points=[[0,0.5],[1,0.5]];portConstraint=eastwest;whiteSpace=wrap;html=1;" vertex="1" parent="GVEii9eAhE3wWIlL0cij-121">
          <mxGeometry y="92" width="160" height="26" as="geometry" />
        </mxCell>
        <mxCell id="SQZJ6hDHrskz5XuIdT97-64" value="+ Element: string" style="text;strokeColor=none;fillColor=none;align=left;verticalAlign=top;spacingLeft=4;spacingRight=4;overflow=hidden;rotatable=0;points=[[0,0.5],[1,0.5]];portConstraint=eastwest;whiteSpace=wrap;html=1;" vertex="1" parent="GVEii9eAhE3wWIlL0cij-121">
          <mxGeometry y="118" width="160" height="26" as="geometry" />
        </mxCell>
        <mxCell id="GVEii9eAhE3wWIlL0cij-125" value="" style="line;strokeWidth=1;fillColor=none;align=left;verticalAlign=middle;spacingTop=-1;spacingLeft=3;spacingRight=3;rotatable=0;labelPosition=right;points=[];portConstraint=eastwest;strokeColor=inherit;" vertex="1" parent="GVEii9eAhE3wWIlL0cij-121">
          <mxGeometry y="144" width="160" height="8" as="geometry" />
        </mxCell>
        <mxCell id="GVEii9eAhE3wWIlL0cij-126" value="draw()" style="text;strokeColor=none;fillColor=none;align=left;verticalAlign=top;spacingLeft=4;spacingRight=4;overflow=hidden;rotatable=0;points=[[0,0.5],[1,0.5]];portConstraint=eastwest;whiteSpace=wrap;html=1;" vertex="1" parent="GVEii9eAhE3wWIlL0cij-121">
          <mxGeometry y="152" width="160" height="26" as="geometry" />
        </mxCell>
        <mxCell id="GVEii9eAhE3wWIlL0cij-128" value="&lt;font style=&quot;font-size: 16px;&quot;&gt;Figures&lt;/font&gt;" style="swimlane;fontStyle=1;align=center;verticalAlign=top;childLayout=stackLayout;horizontal=1;startSize=32;horizontalStack=0;resizeParent=1;resizeParentMax=0;resizeLast=0;collapsible=1;marginBottom=0;whiteSpace=wrap;html=1;" vertex="1" parent="1">
          <mxGeometry x="1428" y="610" width="160" height="170" as="geometry" />
        </mxCell>
        <mxCell id="GVEii9eAhE3wWIlL0cij-129" value="+ Figures: name &amp;lt;code&amp;gt;" style="text;strokeColor=none;fillColor=none;align=left;verticalAlign=top;spacingLeft=4;spacingRight=4;overflow=hidden;rotatable=0;points=[[0,0.5],[1,0.5]];portConstraint=eastwest;whiteSpace=wrap;html=1;" vertex="1" parent="GVEii9eAhE3wWIlL0cij-128">
          <mxGeometry y="32" width="160" height="26" as="geometry" />
        </mxCell>
        <mxCell id="GVEii9eAhE3wWIlL0cij-130" value="+ Pic: png" style="text;strokeColor=none;fillColor=none;align=left;verticalAlign=top;spacingLeft=4;spacingRight=4;overflow=hidden;rotatable=0;points=[[0,0.5],[1,0.5]];portConstraint=eastwest;whiteSpace=wrap;html=1;" vertex="1" parent="GVEii9eAhE3wWIlL0cij-128">
          <mxGeometry y="58" width="160" height="26" as="geometry" />
        </mxCell>
        <mxCell id="GVEii9eAhE3wWIlL0cij-131" value="+ Code:&amp;lt;string&amp;gt;" style="text;strokeColor=none;fillColor=none;align=left;verticalAlign=top;spacingLeft=4;spacingRight=4;overflow=hidden;rotatable=0;points=[[0,0.5],[1,0.5]];portConstraint=eastwest;whiteSpace=wrap;html=1;" vertex="1" parent="GVEii9eAhE3wWIlL0cij-128">
          <mxGeometry y="84" width="160" height="26" as="geometry" />
        </mxCell>
        <mxCell id="GVEii9eAhE3wWIlL0cij-132" value="+ Settings:&amp;lt;string&amp;gt;" style="text;strokeColor=none;fillColor=none;align=left;verticalAlign=top;spacingLeft=4;spacingRight=4;overflow=hidden;rotatable=0;points=[[0,0.5],[1,0.5]];portConstraint=eastwest;whiteSpace=wrap;html=1;" vertex="1" parent="GVEii9eAhE3wWIlL0cij-128">
          <mxGeometry y="110" width="160" height="26" as="geometry" />
        </mxCell>
        <mxCell id="GVEii9eAhE3wWIlL0cij-133" value="" style="line;strokeWidth=1;fillColor=none;align=left;verticalAlign=middle;spacingTop=-1;spacingLeft=3;spacingRight=3;rotatable=0;labelPosition=right;points=[];portConstraint=eastwest;strokeColor=inherit;" vertex="1" parent="GVEii9eAhE3wWIlL0cij-128">
          <mxGeometry y="136" width="160" height="8" as="geometry" />
        </mxCell>
        <mxCell id="GVEii9eAhE3wWIlL0cij-134" value="draw()" style="text;strokeColor=none;fillColor=none;align=left;verticalAlign=top;spacingLeft=4;spacingRight=4;overflow=hidden;rotatable=0;points=[[0,0.5],[1,0.5]];portConstraint=eastwest;whiteSpace=wrap;html=1;" vertex="1" parent="GVEii9eAhE3wWIlL0cij-128">
          <mxGeometry y="144" width="160" height="26" as="geometry" />
        </mxCell>
        <mxCell id="GVEii9eAhE3wWIlL0cij-135" style="edgeStyle=orthogonalEdgeStyle;rounded=0;orthogonalLoop=1;jettySize=auto;html=1;exitX=0;exitY=0.5;exitDx=0;exitDy=0;entryX=0;entryY=0.5;entryDx=0;entryDy=0;endArrow=diamondThin;endFill=0;endSize=10;" edge="1" parent="1" source="GVEii9eAhE3wWIlL0cij-129" target="GVEii9eAhE3wWIlL0cij-124">
          <mxGeometry relative="1" as="geometry" />
        </mxCell>
        <mxCell id="GVEii9eAhE3wWIlL0cij-127" style="edgeStyle=orthogonalEdgeStyle;rounded=0;orthogonalLoop=1;jettySize=auto;html=1;exitX=0;exitY=0.5;exitDx=0;exitDy=0;entryX=1;entryY=0.5;entryDx=0;entryDy=0;endArrow=diamondThin;endFill=1;strokeWidth=1;endSize=9;" edge="1" parent="1" source="GVEii9eAhE3wWIlL0cij-122" target="GVEii9eAhE3wWIlL0cij-93">
          <mxGeometry relative="1" as="geometry" />
        </mxCell>
        <mxCell id="SQZJ6hDHrskz5XuIdT97-1" value="&lt;b&gt;Figure&lt;/b&gt;" style="swimlane;fontStyle=0;childLayout=stackLayout;horizontal=1;startSize=26;fillColor=none;horizontalStack=0;resizeParent=1;resizeParentMax=0;resizeLast=0;collapsible=1;marginBottom=0;whiteSpace=wrap;html=1;" vertex="1" parent="1">
          <mxGeometry x="610" y="320" width="140" height="216" as="geometry" />
        </mxCell>
        <mxCell id="SQZJ6hDHrskz5XuIdT97-2" value="+&amp;nbsp;Name:string" style="text;strokeColor=none;fillColor=none;align=left;verticalAlign=top;spacingLeft=4;spacingRight=4;overflow=hidden;rotatable=0;points=[[0,0.5],[1,0.5]];portConstraint=eastwest;whiteSpace=wrap;html=1;" vertex="1" parent="SQZJ6hDHrskz5XuIdT97-1">
          <mxGeometry y="26" width="140" height="26" as="geometry" />
        </mxCell>
        <mxCell id="SQZJ6hDHrskz5XuIdT97-3" value="+ Image: png" style="text;strokeColor=none;fillColor=none;align=left;verticalAlign=top;spacingLeft=4;spacingRight=4;overflow=hidden;rotatable=0;points=[[0,0.5],[1,0.5]];portConstraint=eastwest;whiteSpace=wrap;html=1;" vertex="1" parent="SQZJ6hDHrskz5XuIdT97-1">
          <mxGeometry y="52" width="140" height="26" as="geometry" />
        </mxCell>
        <mxCell id="SQZJ6hDHrskz5XuIdT97-4" value="+ parametrs:int" style="text;strokeColor=none;fillColor=none;align=left;verticalAlign=top;spacingLeft=4;spacingRight=4;overflow=hidden;rotatable=0;points=[[0,0.5],[1,0.5]];portConstraint=eastwest;whiteSpace=wrap;html=1;" vertex="1" parent="SQZJ6hDHrskz5XuIdT97-1">
          <mxGeometry y="78" width="140" height="26" as="geometry" />
        </mxCell>
        <mxCell id="SQZJ6hDHrskz5XuIdT97-8" value="" style="line;strokeWidth=1;fillColor=none;align=left;verticalAlign=middle;spacingTop=-1;spacingLeft=3;spacingRight=3;rotatable=0;labelPosition=right;points=[];portConstraint=eastwest;strokeColor=inherit;" vertex="1" parent="SQZJ6hDHrskz5XuIdT97-1">
          <mxGeometry y="104" width="140" height="8" as="geometry" />
        </mxCell>
        <mxCell id="nwthXY_L3_9xGj7WgpXf-1" value="+ delete_f()" style="text;strokeColor=none;fillColor=none;align=left;verticalAlign=top;spacingLeft=4;spacingRight=4;overflow=hidden;rotatable=0;points=[[0,0.5],[1,0.5]];portConstraint=eastwest;whiteSpace=wrap;html=1;" vertex="1" parent="SQZJ6hDHrskz5XuIdT97-1">
          <mxGeometry y="112" width="140" height="26" as="geometry" />
        </mxCell>
        <mxCell id="nwthXY_L3_9xGj7WgpXf-2" value="+ copy_f()" style="text;strokeColor=none;fillColor=none;align=left;verticalAlign=top;spacingLeft=4;spacingRight=4;overflow=hidden;rotatable=0;points=[[0,0.5],[1,0.5]];portConstraint=eastwest;whiteSpace=wrap;html=1;" vertex="1" parent="SQZJ6hDHrskz5XuIdT97-1">
          <mxGeometry y="138" width="140" height="26" as="geometry" />
        </mxCell>
        <mxCell id="nwthXY_L3_9xGj7WgpXf-3" value="+ copy_f()" style="text;strokeColor=none;fillColor=none;align=left;verticalAlign=top;spacingLeft=4;spacingRight=4;overflow=hidden;rotatable=0;points=[[0,0.5],[1,0.5]];portConstraint=eastwest;whiteSpace=wrap;html=1;" vertex="1" parent="SQZJ6hDHrskz5XuIdT97-1">
          <mxGeometry y="164" width="140" height="26" as="geometry" />
        </mxCell>
        <mxCell id="nwthXY_L3_9xGj7WgpXf-4" value="+ change_f()" style="text;strokeColor=none;fillColor=none;align=left;verticalAlign=top;spacingLeft=4;spacingRight=4;overflow=hidden;rotatable=0;points=[[0,0.5],[1,0.5]];portConstraint=eastwest;whiteSpace=wrap;html=1;" vertex="1" parent="SQZJ6hDHrskz5XuIdT97-1">
          <mxGeometry y="190" width="140" height="26" as="geometry" />
        </mxCell>
        <mxCell id="SQZJ6hDHrskz5XuIdT97-10" style="edgeStyle=orthogonalEdgeStyle;rounded=0;orthogonalLoop=1;jettySize=auto;html=1;exitX=0;exitY=0.5;exitDx=0;exitDy=0;entryX=1;entryY=0.5;entryDx=0;entryDy=0;endArrow=blockThin;endFill=0;" edge="1" parent="1" source="GVEii9eAhE3wWIlL0cij-13" target="SQZJ6hDHrskz5XuIdT97-2">
          <mxGeometry relative="1" as="geometry">
            <mxPoint x="810" y="491" as="sourcePoint" />
            <mxPoint x="760" y="741" as="targetPoint" />
            <Array as="points">
              <mxPoint x="800" y="455" />
              <mxPoint x="770" y="455" />
              <mxPoint x="770" y="359" />
            </Array>
          </mxGeometry>
        </mxCell>
        <mxCell id="SQZJ6hDHrskz5XuIdT97-26" style="edgeStyle=orthogonalEdgeStyle;rounded=0;orthogonalLoop=1;jettySize=auto;html=1;exitX=1;exitY=0.5;exitDx=0;exitDy=0;entryX=0;entryY=0.25;entryDx=0;entryDy=0;endArrow=diamondThin;endFill=1;endSize=10;" edge="1" parent="1" source="SQZJ6hDHrskz5XuIdT97-25" target="GVEii9eAhE3wWIlL0cij-112">
          <mxGeometry relative="1" as="geometry">
            <mxPoint x="1451" y="313" as="sourcePoint" />
            <mxPoint x="1390" y="465" as="targetPoint" />
          </mxGeometry>
        </mxCell>
        <mxCell id="SQZJ6hDHrskz5XuIdT97-52" style="edgeStyle=orthogonalEdgeStyle;rounded=0;orthogonalLoop=1;jettySize=auto;html=1;exitX=1;exitY=0.5;exitDx=0;exitDy=0;endArrow=none;endFill=0;entryX=-0.002;entryY=0.121;entryDx=0;entryDy=0;entryPerimeter=0;" edge="1" parent="1" source="SQZJ6hDHrskz5XuIdT97-51" target="GVEii9eAhE3wWIlL0cij-115">
          <mxGeometry relative="1" as="geometry">
            <mxPoint x="970" y="457" as="sourcePoint" />
            <mxPoint x="1020" y="653" as="targetPoint" />
            <Array as="points">
              <mxPoint x="980" y="499" />
              <mxPoint x="980" y="653" />
              <mxPoint x="1040" y="653" />
              <mxPoint x="1047" y="654" />
            </Array>
          </mxGeometry>
        </mxCell>
        <mxCell id="SQZJ6hDHrskz5XuIdT97-53" style="edgeStyle=orthogonalEdgeStyle;rounded=0;orthogonalLoop=1;jettySize=auto;html=1;exitX=1;exitY=0.5;exitDx=0;exitDy=0;entryX=0;entryY=0.125;entryDx=0;entryDy=0;endArrow=diamondThin;endFill=1;entryPerimeter=0;endSize=10;" edge="1" parent="1" source="SQZJ6hDHrskz5XuIdT97-50" target="GVEii9eAhE3wWIlL0cij-115">
          <mxGeometry relative="1" as="geometry">
            <mxPoint x="970" y="509" as="sourcePoint" />
            <mxPoint x="1031" y="724" as="targetPoint" />
            <Array as="points">
              <mxPoint x="980" y="473" />
              <mxPoint x="980" y="653" />
            </Array>
          </mxGeometry>
        </mxCell>
        <mxCell id="SQZJ6hDHrskz5XuIdT97-56" style="edgeStyle=orthogonalEdgeStyle;rounded=0;orthogonalLoop=1;jettySize=auto;html=1;exitX=1;exitY=0.5;exitDx=0;exitDy=0;entryX=-0.017;entryY=0.08;entryDx=0;entryDy=0;entryPerimeter=0;" edge="1" parent="1" source="GVEii9eAhE3wWIlL0cij-87" target="GVEii9eAhE3wWIlL0cij-112">
          <mxGeometry relative="1" as="geometry">
            <Array as="points">
              <mxPoint x="960" y="220" />
              <mxPoint x="1010" y="220" />
              <mxPoint x="1010" y="450" />
              <mxPoint x="1018" y="450" />
            </Array>
          </mxGeometry>
        </mxCell>
        <mxCell id="SQZJ6hDHrskz5XuIdT97-57" value="&lt;font style=&quot;font-size: 16px;&quot;&gt;Elements&lt;/font&gt;" style="swimlane;fontStyle=1;align=center;verticalAlign=top;childLayout=stackLayout;horizontal=1;startSize=32;horizontalStack=0;resizeParent=1;resizeParentMax=0;resizeLast=0;collapsible=1;marginBottom=0;whiteSpace=wrap;html=1;" vertex="1" parent="1">
          <mxGeometry x="1667" y="485" width="160" height="170" as="geometry" />
        </mxCell>
        <mxCell id="SQZJ6hDHrskz5XuIdT97-58" value="+ Elements: name &amp;lt;code&amp;gt;" style="text;strokeColor=none;fillColor=none;align=left;verticalAlign=top;spacingLeft=4;spacingRight=4;overflow=hidden;rotatable=0;points=[[0,0.5],[1,0.5]];portConstraint=eastwest;whiteSpace=wrap;html=1;" vertex="1" parent="SQZJ6hDHrskz5XuIdT97-57">
          <mxGeometry y="32" width="160" height="26" as="geometry" />
        </mxCell>
        <mxCell id="SQZJ6hDHrskz5XuIdT97-59" value="+ Pic: png" style="text;strokeColor=none;fillColor=none;align=left;verticalAlign=top;spacingLeft=4;spacingRight=4;overflow=hidden;rotatable=0;points=[[0,0.5],[1,0.5]];portConstraint=eastwest;whiteSpace=wrap;html=1;" vertex="1" parent="SQZJ6hDHrskz5XuIdT97-57">
          <mxGeometry y="58" width="160" height="26" as="geometry" />
        </mxCell>
        <mxCell id="SQZJ6hDHrskz5XuIdT97-60" value="+ Code:&amp;lt;string&amp;gt;" style="text;strokeColor=none;fillColor=none;align=left;verticalAlign=top;spacingLeft=4;spacingRight=4;overflow=hidden;rotatable=0;points=[[0,0.5],[1,0.5]];portConstraint=eastwest;whiteSpace=wrap;html=1;" vertex="1" parent="SQZJ6hDHrskz5XuIdT97-57">
          <mxGeometry y="84" width="160" height="26" as="geometry" />
        </mxCell>
        <mxCell id="SQZJ6hDHrskz5XuIdT97-61" value="+ Settings:&amp;lt;string&amp;gt;" style="text;strokeColor=none;fillColor=none;align=left;verticalAlign=top;spacingLeft=4;spacingRight=4;overflow=hidden;rotatable=0;points=[[0,0.5],[1,0.5]];portConstraint=eastwest;whiteSpace=wrap;html=1;" vertex="1" parent="SQZJ6hDHrskz5XuIdT97-57">
          <mxGeometry y="110" width="160" height="26" as="geometry" />
        </mxCell>
        <mxCell id="SQZJ6hDHrskz5XuIdT97-62" value="" style="line;strokeWidth=1;fillColor=none;align=left;verticalAlign=middle;spacingTop=-1;spacingLeft=3;spacingRight=3;rotatable=0;labelPosition=right;points=[];portConstraint=eastwest;strokeColor=inherit;" vertex="1" parent="SQZJ6hDHrskz5XuIdT97-57">
          <mxGeometry y="136" width="160" height="8" as="geometry" />
        </mxCell>
        <mxCell id="SQZJ6hDHrskz5XuIdT97-63" value="draw()" style="text;strokeColor=none;fillColor=none;align=left;verticalAlign=top;spacingLeft=4;spacingRight=4;overflow=hidden;rotatable=0;points=[[0,0.5],[1,0.5]];portConstraint=eastwest;whiteSpace=wrap;html=1;" vertex="1" parent="SQZJ6hDHrskz5XuIdT97-57">
          <mxGeometry y="144" width="160" height="26" as="geometry" />
        </mxCell>
        <mxCell id="SQZJ6hDHrskz5XuIdT97-65" style="edgeStyle=orthogonalEdgeStyle;rounded=0;orthogonalLoop=1;jettySize=auto;html=1;exitX=0;exitY=0.5;exitDx=0;exitDy=0;entryX=1;entryY=0.5;entryDx=0;entryDy=0;endArrow=diamondThin;endFill=0;endSize=10;" edge="1" parent="1" source="SQZJ6hDHrskz5XuIdT97-58" target="SQZJ6hDHrskz5XuIdT97-64">
          <mxGeometry relative="1" as="geometry">
            <mxPoint x="1438" y="665" as="sourcePoint" />
            <mxPoint x="1438" y="517" as="targetPoint" />
          </mxGeometry>
        </mxCell>
      </root>
    </mxGraphModel>
  </diagram>
</mxfile>
